<svg width="44" height="28" viewBox="0 0 44 28" fill="none" xmlns="http://www.w3.org/2000/svg">
<path d="M21.8825 0.912116C21.956 0.873036 22.044 0.873037 22.1175 0.912115L37.1626 8.91931C37.2371 8.95895 37.266 9.00286 37.2803 9.03832C37.2974 9.08084 37.3032 9.13834 37.2877 9.20053C37.2722 9.26272 37.24 9.31076 37.2049 9.34024C37.1757 9.36483 37.1295 9.39 37.0451 9.39H6.95488C6.8705 9.39 6.82435 9.36483 6.79506 9.34024C6.75995 9.31076 6.72784 9.26271 6.71232 9.20053C6.6968 9.13834 6.70258 9.08084 6.71972 9.03832C6.73402 9.00286 6.76294 8.95895 6.83742 8.91931L21.8825 0.912116Z" stroke="#727272" stroke-width="1.5"/>
<line x1="9.82373" y1="9.25244" x2="9.82373" y2="23.8124" stroke="#727272" stroke-width="1.5"/>
<line x1="15.8237" y1="9.25244" x2="15.8237" y2="23.8124" stroke="#727272" stroke-width="1.5"/>
<line x1="33.8237" y1="9.25244" x2="33.8237" y2="23.8124" stroke="#727272" stroke-width="1.5"/>
<line x1="27.8237" y1="9.25244" x2="27.8237" y2="23.8124" stroke="#727272" stroke-width="1.5"/>
<line x1="0.75" y1="-0.75" x2="33.1032" y2="-0.75" transform="matrix(-0.99998 -0.00636018 0.00588036 -0.999983 39 23.9199)" stroke="#727272" stroke-width="1.5" stroke-linecap="round"/>
<line x1="38.25" y1="26.75" x2="5.75" y2="26.75" stroke="#727272" stroke-width="1.5" stroke-linecap="round"/>
</svg>
