<svg width="253" height="165" viewBox="0 0 253 165" fill="none" xmlns="http://www.w3.org/2000/svg">
<path d="M4.28711 161.685H2.20898L2.22266 160.612H4.28711C4.99805 160.612 5.59049 160.464 6.06445 160.167C6.53841 159.867 6.89388 159.447 7.13086 158.91C7.3724 158.367 7.49316 157.734 7.49316 157.009V156.401C7.49316 155.831 7.4248 155.325 7.28809 154.883C7.15137 154.437 6.95085 154.061 6.68652 153.755C6.4222 153.445 6.09863 153.211 5.71582 153.051C5.33757 152.892 4.90234 152.812 4.41016 152.812H2.16797V151.732H4.41016C5.06185 151.732 5.65658 151.841 6.19434 152.06C6.7321 152.274 7.19466 152.586 7.58203 152.997C7.97396 153.402 8.27474 153.894 8.48438 154.473C8.69401 155.047 8.79883 155.694 8.79883 156.415V157.009C8.79883 157.729 8.69401 158.379 8.48438 158.958C8.27474 159.532 7.97168 160.022 7.5752 160.427C7.18327 160.833 6.70931 161.145 6.15332 161.364C5.60189 161.578 4.97982 161.685 4.28711 161.685ZM2.91309 151.732V161.685H1.59375V151.732H2.91309ZM11.8545 155.451V161.685H10.5898V154.289H11.8203L11.8545 155.451ZM14.165 154.248L14.1582 155.423C14.0534 155.401 13.9531 155.387 13.8574 155.382C13.7663 155.373 13.6615 155.369 13.543 155.369C13.2513 155.369 12.9938 155.414 12.7705 155.505C12.5472 155.597 12.3581 155.724 12.2031 155.888C12.0482 156.052 11.9251 156.248 11.834 156.476C11.7474 156.699 11.6904 156.945 11.6631 157.214L11.3076 157.419C11.3076 156.973 11.3509 156.554 11.4375 156.162C11.5286 155.77 11.6676 155.423 11.8545 155.123C12.0413 154.817 12.2783 154.58 12.5654 154.412C12.8571 154.238 13.2035 154.152 13.6045 154.152C13.6956 154.152 13.8005 154.163 13.9189 154.186C14.0374 154.204 14.1195 154.225 14.165 154.248ZM19.4219 160.42V156.613C19.4219 156.321 19.3626 156.068 19.2441 155.854C19.1302 155.635 18.957 155.467 18.7246 155.348C18.4922 155.23 18.2051 155.17 17.8633 155.17C17.5443 155.17 17.264 155.225 17.0225 155.334C16.7855 155.444 16.5986 155.587 16.4619 155.765C16.3298 155.943 16.2637 156.134 16.2637 156.339H14.999C14.999 156.075 15.0674 155.813 15.2041 155.553C15.3408 155.293 15.5368 155.059 15.792 154.849C16.0518 154.635 16.3617 154.466 16.7217 154.343C17.0863 154.216 17.4919 154.152 17.9385 154.152C18.4762 154.152 18.9502 154.243 19.3604 154.425C19.7751 154.608 20.0986 154.883 20.3311 155.252C20.568 155.617 20.6865 156.075 20.6865 156.626V160.072C20.6865 160.318 20.707 160.58 20.748 160.858C20.7936 161.136 20.8597 161.375 20.9463 161.576V161.685H19.627C19.5632 161.539 19.513 161.346 19.4766 161.104C19.4401 160.858 19.4219 160.63 19.4219 160.42ZM19.6406 157.201L19.6543 158.089H18.376C18.016 158.089 17.6947 158.119 17.4121 158.178C17.1296 158.233 16.8926 158.317 16.7012 158.431C16.5098 158.545 16.3639 158.689 16.2637 158.862C16.1634 159.03 16.1133 159.229 16.1133 159.457C16.1133 159.689 16.1657 159.901 16.2705 160.092C16.3753 160.284 16.5326 160.436 16.7422 160.55C16.9564 160.66 17.2184 160.714 17.5283 160.714C17.9157 160.714 18.2575 160.632 18.5537 160.468C18.8499 160.304 19.0846 160.104 19.2578 159.867C19.4355 159.63 19.5312 159.4 19.5449 159.176L20.085 159.785C20.0531 159.976 19.9665 160.188 19.8252 160.42C19.6839 160.653 19.4948 160.876 19.2578 161.09C19.0254 161.3 18.7474 161.475 18.4238 161.617C18.1048 161.753 17.7448 161.822 17.3438 161.822C16.8424 161.822 16.4027 161.724 16.0244 161.528C15.6507 161.332 15.359 161.07 15.1494 160.742C14.9443 160.409 14.8418 160.038 14.8418 159.627C14.8418 159.231 14.9193 158.882 15.0742 158.582C15.2292 158.276 15.4525 158.023 15.7441 157.823C16.0358 157.618 16.3867 157.463 16.7969 157.358C17.207 157.253 17.665 157.201 18.1709 157.201H19.6406ZM27.4678 154.289H28.6162V161.528C28.6162 162.18 28.484 162.736 28.2197 163.196C27.9554 163.656 27.5863 164.005 27.1123 164.242C26.6429 164.483 26.1006 164.604 25.4854 164.604C25.2301 164.604 24.9294 164.563 24.583 164.481C24.2412 164.403 23.904 164.269 23.5713 164.078C23.2432 163.891 22.9674 163.638 22.7441 163.319L23.4072 162.567C23.7171 162.941 24.0407 163.2 24.3779 163.346C24.7197 163.492 25.057 163.565 25.3896 163.565C25.7907 163.565 26.137 163.49 26.4287 163.339C26.7204 163.189 26.946 162.966 27.1055 162.669C27.2695 162.378 27.3516 162.018 27.3516 161.589V155.916L27.4678 154.289ZM22.375 158.069V157.925C22.375 157.36 22.4411 156.847 22.5732 156.387C22.71 155.922 22.9036 155.524 23.1543 155.191C23.4095 154.858 23.7171 154.603 24.0771 154.425C24.4372 154.243 24.8428 154.152 25.2939 154.152C25.7588 154.152 26.1644 154.234 26.5107 154.398C26.8617 154.557 27.1579 154.792 27.3994 155.102C27.6455 155.407 27.8392 155.777 27.9805 156.209C28.1217 156.642 28.2197 157.132 28.2744 157.679V158.308C28.2243 158.85 28.1263 159.338 27.9805 159.771C27.8392 160.204 27.6455 160.573 27.3994 160.878C27.1579 161.184 26.8617 161.418 26.5107 161.583C26.1598 161.742 25.7497 161.822 25.2803 161.822C24.8382 161.822 24.4372 161.728 24.0771 161.542C23.7217 161.355 23.4163 161.093 23.1611 160.755C22.9059 160.418 22.71 160.022 22.5732 159.566C22.4411 159.106 22.375 158.607 22.375 158.069ZM23.6396 157.925V158.069C23.6396 158.438 23.6761 158.784 23.749 159.108C23.8265 159.431 23.9427 159.716 24.0977 159.962C24.2572 160.208 24.46 160.402 24.7061 160.543C24.9521 160.68 25.2461 160.749 25.5879 160.749C26.0072 160.749 26.3535 160.66 26.627 160.482C26.9004 160.304 27.1169 160.069 27.2764 159.778C27.4404 159.486 27.568 159.169 27.6592 158.828V157.18C27.609 156.93 27.5316 156.688 27.4268 156.456C27.3265 156.219 27.1943 156.009 27.0303 155.827C26.8708 155.64 26.6725 155.492 26.4355 155.382C26.1986 155.273 25.9206 155.218 25.6016 155.218C25.2552 155.218 24.9567 155.291 24.7061 155.437C24.46 155.578 24.2572 155.774 24.0977 156.025C23.9427 156.271 23.8265 156.558 23.749 156.886C23.6761 157.21 23.6396 157.556 23.6396 157.925ZM38.3711 160.42V156.613C38.3711 156.321 38.3118 156.068 38.1934 155.854C38.0794 155.635 37.9062 155.467 37.6738 155.348C37.4414 155.23 37.1543 155.17 36.8125 155.17C36.4935 155.17 36.2132 155.225 35.9717 155.334C35.7347 155.444 35.5479 155.587 35.4111 155.765C35.279 155.943 35.2129 156.134 35.2129 156.339H33.9482C33.9482 156.075 34.0166 155.813 34.1533 155.553C34.29 155.293 34.486 155.059 34.7412 154.849C35.001 154.635 35.3109 154.466 35.6709 154.343C36.0355 154.216 36.4411 154.152 36.8877 154.152C37.4255 154.152 37.8994 154.243 38.3096 154.425C38.7243 154.608 39.0479 154.883 39.2803 155.252C39.5173 155.617 39.6357 156.075 39.6357 156.626V160.072C39.6357 160.318 39.6562 160.58 39.6973 160.858C39.7428 161.136 39.8089 161.375 39.8955 161.576V161.685H38.5762C38.5124 161.539 38.4622 161.346 38.4258 161.104C38.3893 160.858 38.3711 160.63 38.3711 160.42ZM38.5898 157.201L38.6035 158.089H37.3252C36.9652 158.089 36.6439 158.119 36.3613 158.178C36.0788 158.233 35.8418 158.317 35.6504 158.431C35.459 158.545 35.3132 158.689 35.2129 158.862C35.1126 159.03 35.0625 159.229 35.0625 159.457C35.0625 159.689 35.1149 159.901 35.2197 160.092C35.3245 160.284 35.4818 160.436 35.6914 160.55C35.9056 160.66 36.1676 160.714 36.4775 160.714C36.8649 160.714 37.2067 160.632 37.5029 160.468C37.7992 160.304 38.0339 160.104 38.207 159.867C38.3848 159.63 38.4805 159.4 38.4941 159.176L39.0342 159.785C39.0023 159.976 38.9157 160.188 38.7744 160.42C38.6331 160.653 38.444 160.876 38.207 161.09C37.9746 161.3 37.6966 161.475 37.373 161.617C37.054 161.753 36.694 161.822 36.293 161.822C35.7917 161.822 35.3519 161.724 34.9736 161.528C34.5999 161.332 34.3083 161.07 34.0986 160.742C33.8936 160.409 33.791 160.038 33.791 159.627C33.791 159.231 33.8685 158.882 34.0234 158.582C34.1784 158.276 34.4017 158.023 34.6934 157.823C34.985 157.618 35.3359 157.463 35.7461 157.358C36.1562 157.253 36.6143 157.201 37.1201 157.201H38.5898ZM42.8896 155.868V161.685H41.625V154.289H42.8213L42.8896 155.868ZM42.5889 157.707L42.0625 157.686C42.0671 157.18 42.1423 156.713 42.2881 156.285C42.4339 155.852 42.639 155.476 42.9033 155.157C43.1676 154.838 43.4821 154.592 43.8467 154.418C44.2158 154.241 44.6237 154.152 45.0703 154.152C45.4349 154.152 45.763 154.202 46.0547 154.302C46.3464 154.398 46.5947 154.553 46.7998 154.767C47.0094 154.981 47.1689 155.259 47.2783 155.601C47.3877 155.938 47.4424 156.351 47.4424 156.838V161.685H46.1709V156.825C46.1709 156.437 46.1139 156.127 46 155.895C45.8861 155.658 45.7197 155.487 45.501 155.382C45.2822 155.273 45.0133 155.218 44.6943 155.218C44.3799 155.218 44.0928 155.284 43.833 155.417C43.5778 155.549 43.3568 155.731 43.1699 155.963C42.9876 156.196 42.8441 156.462 42.7393 156.763C42.639 157.059 42.5889 157.374 42.5889 157.707ZM54.0254 160.25V151.185H55.2969V161.685H54.1348L54.0254 160.25ZM49.0488 158.069V157.925C49.0488 157.36 49.1172 156.847 49.2539 156.387C49.3952 155.922 49.5934 155.524 49.8486 155.191C50.1084 154.858 50.416 154.603 50.7715 154.425C51.1315 154.243 51.5326 154.152 51.9746 154.152C52.4395 154.152 52.8451 154.234 53.1914 154.398C53.5423 154.557 53.8385 154.792 54.0801 155.102C54.3262 155.407 54.5199 155.777 54.6611 156.209C54.8024 156.642 54.9004 157.132 54.9551 157.679V158.308C54.9049 158.85 54.807 159.338 54.6611 159.771C54.5199 160.204 54.3262 160.573 54.0801 160.878C53.8385 161.184 53.5423 161.418 53.1914 161.583C52.8405 161.742 52.4303 161.822 51.9609 161.822C51.528 161.822 51.1315 161.728 50.7715 161.542C50.416 161.355 50.1084 161.093 49.8486 160.755C49.5934 160.418 49.3952 160.022 49.2539 159.566C49.1172 159.106 49.0488 158.607 49.0488 158.069ZM50.3203 157.925V158.069C50.3203 158.438 50.3568 158.784 50.4297 159.108C50.5072 159.431 50.6257 159.716 50.7852 159.962C50.9447 160.208 51.1475 160.402 51.3936 160.543C51.6396 160.68 51.9336 160.749 52.2754 160.749C52.6947 160.749 53.0387 160.66 53.3076 160.482C53.5811 160.304 53.7998 160.069 53.9639 159.778C54.1279 159.486 54.2555 159.169 54.3467 158.828V157.18C54.292 156.93 54.2122 156.688 54.1074 156.456C54.0072 156.219 53.875 156.009 53.7109 155.827C53.5514 155.64 53.3532 155.492 53.1162 155.382C52.8838 155.273 52.6081 155.218 52.2891 155.218C51.9427 155.218 51.6442 155.291 51.3936 155.437C51.1475 155.578 50.9447 155.774 50.7852 156.025C50.6257 156.271 50.5072 156.558 50.4297 156.886C50.3568 157.21 50.3203 157.556 50.3203 157.925ZM65.4004 160.25V151.185H66.6719V161.685H65.5098L65.4004 160.25ZM60.4238 158.069V157.925C60.4238 157.36 60.4922 156.847 60.6289 156.387C60.7702 155.922 60.9684 155.524 61.2236 155.191C61.4834 154.858 61.791 154.603 62.1465 154.425C62.5065 154.243 62.9076 154.152 63.3496 154.152C63.8145 154.152 64.2201 154.234 64.5664 154.398C64.9173 154.557 65.2135 154.792 65.4551 155.102C65.7012 155.407 65.8949 155.777 66.0361 156.209C66.1774 156.642 66.2754 157.132 66.3301 157.679V158.308C66.2799 158.85 66.182 159.338 66.0361 159.771C65.8949 160.204 65.7012 160.573 65.4551 160.878C65.2135 161.184 64.9173 161.418 64.5664 161.583C64.2155 161.742 63.8053 161.822 63.3359 161.822C62.903 161.822 62.5065 161.728 62.1465 161.542C61.791 161.355 61.4834 161.093 61.2236 160.755C60.9684 160.418 60.7702 160.022 60.6289 159.566C60.4922 159.106 60.4238 158.607 60.4238 158.069ZM61.6953 157.925V158.069C61.6953 158.438 61.7318 158.784 61.8047 159.108C61.8822 159.431 62.0007 159.716 62.1602 159.962C62.3197 160.208 62.5225 160.402 62.7686 160.543C63.0146 160.68 63.3086 160.749 63.6504 160.749C64.0697 160.749 64.4137 160.66 64.6826 160.482C64.9561 160.304 65.1748 160.069 65.3389 159.778C65.5029 159.486 65.6305 159.169 65.7217 158.828V157.18C65.667 156.93 65.5872 156.688 65.4824 156.456C65.3822 156.219 65.25 156.009 65.0859 155.827C64.9264 155.64 64.7282 155.492 64.4912 155.382C64.2588 155.273 63.9831 155.218 63.6641 155.218C63.3177 155.218 63.0192 155.291 62.7686 155.437C62.5225 155.578 62.3197 155.774 62.1602 156.025C62.0007 156.271 61.8822 156.558 61.8047 156.886C61.7318 157.21 61.6953 157.556 61.6953 157.925ZM69.9053 155.451V161.685H68.6406V154.289H69.8711L69.9053 155.451ZM72.2158 154.248L72.209 155.423C72.1042 155.401 72.0039 155.387 71.9082 155.382C71.8171 155.373 71.7122 155.369 71.5938 155.369C71.3021 155.369 71.0446 155.414 70.8213 155.505C70.598 155.597 70.4089 155.724 70.2539 155.888C70.099 156.052 69.9759 156.248 69.8848 156.476C69.7982 156.699 69.7412 156.945 69.7139 157.214L69.3584 157.419C69.3584 156.973 69.4017 156.554 69.4883 156.162C69.5794 155.77 69.7184 155.423 69.9053 155.123C70.0921 154.817 70.3291 154.58 70.6162 154.412C70.9079 154.238 71.2542 154.152 71.6553 154.152C71.7464 154.152 71.8512 154.163 71.9697 154.186C72.0882 154.204 72.1702 154.225 72.2158 154.248ZM72.9131 158.069V157.912C72.9131 157.378 72.9906 156.884 73.1455 156.428C73.3005 155.968 73.5238 155.569 73.8154 155.232C74.1071 154.89 74.4603 154.626 74.875 154.439C75.2897 154.248 75.7546 154.152 76.2695 154.152C76.7891 154.152 77.2562 154.248 77.6709 154.439C78.0902 154.626 78.4456 154.89 78.7373 155.232C79.0335 155.569 79.2591 155.968 79.4141 156.428C79.569 156.884 79.6465 157.378 79.6465 157.912V158.069C79.6465 158.602 79.569 159.097 79.4141 159.552C79.2591 160.008 79.0335 160.407 78.7373 160.749C78.4456 161.086 78.0924 161.35 77.6777 161.542C77.2676 161.728 76.8027 161.822 76.2832 161.822C75.7637 161.822 75.2965 161.728 74.8818 161.542C74.4671 161.35 74.1117 161.086 73.8154 160.749C73.5238 160.407 73.3005 160.008 73.1455 159.552C72.9906 159.097 72.9131 158.602 72.9131 158.069ZM74.1777 157.912V158.069C74.1777 158.438 74.221 158.787 74.3076 159.115C74.3942 159.438 74.5241 159.725 74.6973 159.976C74.875 160.227 75.096 160.425 75.3604 160.571C75.6247 160.712 75.9323 160.783 76.2832 160.783C76.6296 160.783 76.9326 160.712 77.1924 160.571C77.4567 160.425 77.6755 160.227 77.8486 159.976C78.0218 159.725 78.1517 159.438 78.2383 159.115C78.3294 158.787 78.375 158.438 78.375 158.069V157.912C78.375 157.547 78.3294 157.203 78.2383 156.879C78.1517 156.551 78.0195 156.262 77.8418 156.011C77.6686 155.756 77.4499 155.556 77.1855 155.41C76.9258 155.264 76.6204 155.191 76.2695 155.191C75.9232 155.191 75.6178 155.264 75.3535 155.41C75.0938 155.556 74.875 155.756 74.6973 156.011C74.5241 156.262 74.3942 156.551 74.3076 156.879C74.221 157.203 74.1777 157.547 74.1777 157.912ZM82.4971 155.71V164.529H81.2256V154.289H82.3877L82.4971 155.71ZM87.4805 157.925V158.069C87.4805 158.607 87.4167 159.106 87.2891 159.566C87.1615 160.022 86.9746 160.418 86.7285 160.755C86.487 161.093 86.1885 161.355 85.833 161.542C85.4775 161.728 85.0697 161.822 84.6094 161.822C84.14 161.822 83.7253 161.744 83.3652 161.589C83.0052 161.434 82.6999 161.209 82.4492 160.913C82.1986 160.616 81.998 160.261 81.8477 159.846C81.7018 159.431 81.6016 158.964 81.5469 158.445V157.679C81.6016 157.132 81.7041 156.642 81.8545 156.209C82.0049 155.777 82.2031 155.407 82.4492 155.102C82.6999 154.792 83.0029 154.557 83.3584 154.398C83.7139 154.234 84.124 154.152 84.5889 154.152C85.0537 154.152 85.4661 154.243 85.8262 154.425C86.1862 154.603 86.4893 154.858 86.7354 155.191C86.9814 155.524 87.166 155.922 87.2891 156.387C87.4167 156.847 87.4805 157.36 87.4805 157.925ZM86.209 158.069V157.925C86.209 157.556 86.1702 157.21 86.0928 156.886C86.0153 156.558 85.8945 156.271 85.7305 156.025C85.571 155.774 85.3659 155.578 85.1152 155.437C84.8646 155.291 84.5661 155.218 84.2197 155.218C83.9007 155.218 83.6227 155.273 83.3857 155.382C83.1533 155.492 82.9551 155.64 82.791 155.827C82.627 156.009 82.4925 156.219 82.3877 156.456C82.2874 156.688 82.2122 156.93 82.1621 157.18V158.951C82.2533 159.27 82.3809 159.57 82.5449 159.853C82.709 160.131 82.9277 160.357 83.2012 160.53C83.4746 160.698 83.8187 160.783 84.2334 160.783C84.5752 160.783 84.8691 160.712 85.1152 160.571C85.3659 160.425 85.571 160.227 85.7305 159.976C85.8945 159.725 86.0153 159.438 86.0928 159.115C86.1702 158.787 86.209 158.438 86.209 158.069ZM92.2314 158.069V157.912C92.2314 157.378 92.3089 156.884 92.4639 156.428C92.6188 155.968 92.8421 155.569 93.1338 155.232C93.4255 154.89 93.7786 154.626 94.1934 154.439C94.6081 154.248 95.0729 154.152 95.5879 154.152C96.1074 154.152 96.5745 154.248 96.9893 154.439C97.4085 154.626 97.764 154.89 98.0557 155.232C98.3519 155.569 98.5775 155.968 98.7324 156.428C98.8874 156.884 98.9648 157.378 98.9648 157.912V158.069C98.9648 158.602 98.8874 159.097 98.7324 159.552C98.5775 160.008 98.3519 160.407 98.0557 160.749C97.764 161.086 97.4108 161.35 96.9961 161.542C96.5859 161.728 96.1211 161.822 95.6016 161.822C95.082 161.822 94.6149 161.728 94.2002 161.542C93.7855 161.35 93.43 161.086 93.1338 160.749C92.8421 160.407 92.6188 160.008 92.4639 159.552C92.3089 159.097 92.2314 158.602 92.2314 158.069ZM93.4961 157.912V158.069C93.4961 158.438 93.5394 158.787 93.626 159.115C93.7126 159.438 93.8424 159.725 94.0156 159.976C94.1934 160.227 94.4144 160.425 94.6787 160.571C94.943 160.712 95.2507 160.783 95.6016 160.783C95.9479 160.783 96.251 160.712 96.5107 160.571C96.7751 160.425 96.9938 160.227 97.167 159.976C97.3402 159.725 97.4701 159.438 97.5566 159.115C97.6478 158.787 97.6934 158.438 97.6934 158.069V157.912C97.6934 157.547 97.6478 157.203 97.5566 156.879C97.4701 156.551 97.3379 156.262 97.1602 156.011C96.987 155.756 96.7682 155.556 96.5039 155.41C96.2441 155.264 95.9388 155.191 95.5879 155.191C95.2415 155.191 94.9362 155.264 94.6719 155.41C94.4121 155.556 94.1934 155.756 94.0156 156.011C93.8424 156.262 93.7126 156.551 93.626 156.879C93.5394 157.203 93.4961 157.547 93.4961 157.912ZM101.815 155.451V161.685H100.551V154.289H101.781L101.815 155.451ZM104.126 154.248L104.119 155.423C104.014 155.401 103.914 155.387 103.818 155.382C103.727 155.373 103.622 155.369 103.504 155.369C103.212 155.369 102.955 155.414 102.731 155.505C102.508 155.597 102.319 155.724 102.164 155.888C102.009 156.052 101.886 156.248 101.795 156.476C101.708 156.699 101.651 156.945 101.624 157.214L101.269 157.419C101.269 156.973 101.312 156.554 101.398 156.162C101.49 155.77 101.629 155.423 101.815 155.123C102.002 154.817 102.239 154.58 102.526 154.412C102.818 154.238 103.164 154.152 103.565 154.152C103.657 154.152 103.761 154.163 103.88 154.186C103.998 154.204 104.08 154.225 104.126 154.248ZM108.761 151.185H110.032V160.25L109.923 161.685H108.761V151.185ZM115.029 157.925V158.069C115.029 158.607 114.965 159.106 114.838 159.566C114.71 160.022 114.523 160.418 114.277 160.755C114.031 161.093 113.73 161.355 113.375 161.542C113.02 161.728 112.612 161.822 112.151 161.822C111.682 161.822 111.27 161.742 110.914 161.583C110.563 161.418 110.267 161.184 110.025 160.878C109.784 160.573 109.59 160.204 109.444 159.771C109.303 159.338 109.205 158.85 109.15 158.308V157.679C109.205 157.132 109.303 156.642 109.444 156.209C109.59 155.777 109.784 155.407 110.025 155.102C110.267 154.792 110.563 154.557 110.914 154.398C111.265 154.234 111.673 154.152 112.138 154.152C112.603 154.152 113.015 154.243 113.375 154.425C113.735 154.603 114.036 154.858 114.277 155.191C114.523 155.524 114.71 155.922 114.838 156.387C114.965 156.847 115.029 157.36 115.029 157.925ZM113.758 158.069V157.925C113.758 157.556 113.724 157.21 113.655 156.886C113.587 156.558 113.478 156.271 113.327 156.025C113.177 155.774 112.979 155.578 112.732 155.437C112.486 155.291 112.183 155.218 111.823 155.218C111.504 155.218 111.226 155.273 110.989 155.382C110.757 155.492 110.559 155.64 110.395 155.827C110.23 156.009 110.096 156.219 109.991 156.456C109.891 156.688 109.816 156.93 109.766 157.18V158.828C109.839 159.147 109.957 159.454 110.121 159.75C110.29 160.042 110.513 160.281 110.791 160.468C111.074 160.655 111.422 160.749 111.837 160.749C112.179 160.749 112.47 160.68 112.712 160.543C112.958 160.402 113.156 160.208 113.307 159.962C113.462 159.716 113.576 159.431 113.648 159.108C113.721 158.784 113.758 158.438 113.758 158.069ZM117.894 155.451V161.685H116.629V154.289H117.859L117.894 155.451ZM120.204 154.248L120.197 155.423C120.092 155.401 119.992 155.387 119.896 155.382C119.805 155.373 119.701 155.369 119.582 155.369C119.29 155.369 119.033 155.414 118.81 155.505C118.586 155.597 118.397 155.724 118.242 155.888C118.087 156.052 117.964 156.248 117.873 156.476C117.786 156.699 117.729 156.945 117.702 157.214L117.347 157.419C117.347 156.973 117.39 156.554 117.477 156.162C117.568 155.77 117.707 155.423 117.894 155.123C118.08 154.817 118.317 154.58 118.604 154.412C118.896 154.238 119.243 154.152 119.644 154.152C119.735 154.152 119.84 154.163 119.958 154.186C120.076 154.204 120.159 154.225 120.204 154.248ZM120.901 158.069V157.912C120.901 157.378 120.979 156.884 121.134 156.428C121.289 155.968 121.512 155.569 121.804 155.232C122.095 154.89 122.449 154.626 122.863 154.439C123.278 154.248 123.743 154.152 124.258 154.152C124.777 154.152 125.244 154.248 125.659 154.439C126.078 154.626 126.434 154.89 126.726 155.232C127.022 155.569 127.247 155.968 127.402 156.428C127.557 156.884 127.635 157.378 127.635 157.912V158.069C127.635 158.602 127.557 159.097 127.402 159.552C127.247 160.008 127.022 160.407 126.726 160.749C126.434 161.086 126.081 161.35 125.666 161.542C125.256 161.728 124.791 161.822 124.271 161.822C123.752 161.822 123.285 161.728 122.87 161.542C122.455 161.35 122.1 161.086 121.804 160.749C121.512 160.407 121.289 160.008 121.134 159.552C120.979 159.097 120.901 158.602 120.901 158.069ZM122.166 157.912V158.069C122.166 158.438 122.209 158.787 122.296 159.115C122.382 159.438 122.512 159.725 122.686 159.976C122.863 160.227 123.084 160.425 123.349 160.571C123.613 160.712 123.921 160.783 124.271 160.783C124.618 160.783 124.921 160.712 125.181 160.571C125.445 160.425 125.664 160.227 125.837 159.976C126.01 159.725 126.14 159.438 126.227 159.115C126.318 158.787 126.363 158.438 126.363 158.069V157.912C126.363 157.547 126.318 157.203 126.227 156.879C126.14 156.551 126.008 156.262 125.83 156.011C125.657 155.756 125.438 155.556 125.174 155.41C124.914 155.264 124.609 155.191 124.258 155.191C123.911 155.191 123.606 155.264 123.342 155.41C123.082 155.556 122.863 155.756 122.686 156.011C122.512 156.262 122.382 156.551 122.296 156.879C122.209 157.203 122.166 157.547 122.166 157.912ZM131.094 160.373L132.994 154.289H133.828L133.664 155.499L131.729 161.685H130.916L131.094 160.373ZM129.815 154.289L131.436 160.441L131.552 161.685H130.697L128.551 154.289H129.815ZM135.646 160.393L137.191 154.289H138.449L136.303 161.685H135.455L135.646 160.393ZM134.013 154.289L135.872 160.27L136.084 161.685H135.277L133.288 155.485L133.124 154.289H134.013ZM144.055 159.723C144.055 159.541 144.014 159.372 143.932 159.217C143.854 159.058 143.692 158.914 143.446 158.787C143.205 158.654 142.84 158.541 142.353 158.445C141.942 158.358 141.571 158.256 141.238 158.137C140.91 158.019 140.63 157.875 140.397 157.707C140.17 157.538 139.994 157.34 139.871 157.112C139.748 156.884 139.687 156.617 139.687 156.312C139.687 156.02 139.75 155.745 139.878 155.485C140.01 155.225 140.195 154.995 140.432 154.794C140.673 154.594 140.963 154.437 141.3 154.323C141.637 154.209 142.013 154.152 142.428 154.152C143.02 154.152 143.526 154.257 143.945 154.466C144.365 154.676 144.686 154.956 144.909 155.307C145.132 155.653 145.244 156.039 145.244 156.462H143.979C143.979 156.257 143.918 156.059 143.795 155.868C143.676 155.672 143.501 155.51 143.269 155.382C143.041 155.255 142.76 155.191 142.428 155.191C142.077 155.191 141.792 155.246 141.573 155.355C141.359 155.46 141.202 155.594 141.102 155.758C141.006 155.922 140.958 156.096 140.958 156.278C140.958 156.415 140.981 156.538 141.026 156.647C141.076 156.752 141.163 156.85 141.286 156.941C141.409 157.028 141.582 157.11 141.806 157.187C142.029 157.264 142.314 157.342 142.66 157.419C143.266 157.556 143.765 157.72 144.157 157.912C144.549 158.103 144.841 158.338 145.032 158.616C145.224 158.894 145.319 159.231 145.319 159.627C145.319 159.951 145.251 160.247 145.114 160.516C144.982 160.785 144.788 161.017 144.533 161.213C144.283 161.405 143.982 161.555 143.631 161.665C143.285 161.769 142.895 161.822 142.462 161.822C141.81 161.822 141.259 161.706 140.808 161.473C140.356 161.241 140.015 160.94 139.782 160.571C139.55 160.202 139.434 159.812 139.434 159.402H140.705C140.723 159.748 140.824 160.024 141.006 160.229C141.188 160.43 141.411 160.573 141.676 160.66C141.94 160.742 142.202 160.783 142.462 160.783C142.808 160.783 143.098 160.737 143.33 160.646C143.567 160.555 143.747 160.43 143.87 160.27C143.993 160.111 144.055 159.928 144.055 159.723ZM150.05 161.822C149.535 161.822 149.068 161.735 148.648 161.562C148.234 161.384 147.876 161.136 147.575 160.817C147.279 160.498 147.051 160.12 146.892 159.682C146.732 159.245 146.652 158.766 146.652 158.247V157.959C146.652 157.358 146.741 156.822 146.919 156.353C147.097 155.879 147.338 155.478 147.644 155.15C147.949 154.822 148.295 154.573 148.683 154.405C149.07 154.236 149.471 154.152 149.886 154.152C150.414 154.152 150.87 154.243 151.253 154.425C151.64 154.608 151.957 154.863 152.203 155.191C152.449 155.514 152.632 155.897 152.75 156.339C152.868 156.777 152.928 157.255 152.928 157.775V158.342H147.404V157.31H151.663V157.214C151.645 156.886 151.576 156.567 151.458 156.257C151.344 155.947 151.162 155.692 150.911 155.492C150.66 155.291 150.319 155.191 149.886 155.191C149.599 155.191 149.334 155.252 149.093 155.375C148.851 155.494 148.644 155.672 148.471 155.909C148.298 156.146 148.163 156.435 148.067 156.777C147.972 157.119 147.924 157.513 147.924 157.959V158.247C147.924 158.597 147.972 158.928 148.067 159.238C148.168 159.543 148.311 159.812 148.498 160.044C148.689 160.277 148.92 160.459 149.188 160.591C149.462 160.723 149.772 160.79 150.118 160.79C150.565 160.79 150.943 160.698 151.253 160.516C151.563 160.334 151.834 160.09 152.066 159.785L152.832 160.393C152.673 160.635 152.47 160.865 152.224 161.083C151.978 161.302 151.674 161.48 151.314 161.617C150.959 161.753 150.537 161.822 150.05 161.822ZM160.974 154.289V155.259H156.975V154.289H160.974ZM158.328 152.491H159.593V159.853C159.593 160.104 159.632 160.293 159.709 160.42C159.786 160.548 159.887 160.632 160.01 160.673C160.133 160.714 160.265 160.735 160.406 160.735C160.511 160.735 160.62 160.726 160.734 160.708C160.853 160.685 160.942 160.667 161.001 160.653L161.008 161.685C160.908 161.717 160.775 161.747 160.611 161.774C160.452 161.806 160.258 161.822 160.03 161.822C159.72 161.822 159.436 161.76 159.176 161.637C158.916 161.514 158.709 161.309 158.554 161.022C158.403 160.73 158.328 160.338 158.328 159.846V152.491ZM161.985 158.069V157.912C161.985 157.378 162.063 156.884 162.218 156.428C162.373 155.968 162.596 155.569 162.888 155.232C163.179 154.89 163.533 154.626 163.947 154.439C164.362 154.248 164.827 154.152 165.342 154.152C165.861 154.152 166.328 154.248 166.743 154.439C167.162 154.626 167.518 154.89 167.81 155.232C168.106 155.569 168.331 155.968 168.486 156.428C168.641 156.884 168.719 157.378 168.719 157.912V158.069C168.719 158.602 168.641 159.097 168.486 159.552C168.331 160.008 168.106 160.407 167.81 160.749C167.518 161.086 167.165 161.35 166.75 161.542C166.34 161.728 165.875 161.822 165.355 161.822C164.836 161.822 164.369 161.728 163.954 161.542C163.539 161.35 163.184 161.086 162.888 160.749C162.596 160.407 162.373 160.008 162.218 159.552C162.063 159.097 161.985 158.602 161.985 158.069ZM163.25 157.912V158.069C163.25 158.438 163.293 158.787 163.38 159.115C163.466 159.438 163.596 159.725 163.77 159.976C163.947 160.227 164.168 160.425 164.433 160.571C164.697 160.712 165.005 160.783 165.355 160.783C165.702 160.783 166.005 160.712 166.265 160.571C166.529 160.425 166.748 160.227 166.921 159.976C167.094 159.725 167.224 159.438 167.311 159.115C167.402 158.787 167.447 158.438 167.447 158.069V157.912C167.447 157.547 167.402 157.203 167.311 156.879C167.224 156.551 167.092 156.262 166.914 156.011C166.741 155.756 166.522 155.556 166.258 155.41C165.998 155.264 165.693 155.191 165.342 155.191C164.995 155.191 164.69 155.264 164.426 155.41C164.166 155.556 163.947 155.756 163.77 156.011C163.596 156.262 163.466 156.551 163.38 156.879C163.293 157.203 163.25 157.547 163.25 157.912ZM176.737 160.783C177.038 160.783 177.316 160.721 177.571 160.598C177.826 160.475 178.036 160.306 178.2 160.092C178.364 159.874 178.458 159.625 178.48 159.347H179.684C179.661 159.785 179.513 160.193 179.239 160.571C178.97 160.944 178.617 161.248 178.18 161.48C177.742 161.708 177.261 161.822 176.737 161.822C176.181 161.822 175.696 161.724 175.281 161.528C174.871 161.332 174.529 161.063 174.256 160.721C173.987 160.379 173.784 159.987 173.647 159.545C173.515 159.099 173.449 158.627 173.449 158.13V157.843C173.449 157.347 173.515 156.877 173.647 156.435C173.784 155.988 173.987 155.594 174.256 155.252C174.529 154.911 174.871 154.642 175.281 154.446C175.696 154.25 176.181 154.152 176.737 154.152C177.316 154.152 177.822 154.27 178.255 154.507C178.688 154.74 179.027 155.059 179.273 155.464C179.524 155.865 179.661 156.321 179.684 156.832H178.48C178.458 156.526 178.371 156.25 178.221 156.004C178.075 155.758 177.874 155.562 177.619 155.417C177.368 155.266 177.075 155.191 176.737 155.191C176.35 155.191 176.024 155.268 175.76 155.423C175.5 155.574 175.293 155.779 175.138 156.039C174.987 156.294 174.878 156.579 174.81 156.893C174.746 157.203 174.714 157.52 174.714 157.843V158.13C174.714 158.454 174.746 158.773 174.81 159.087C174.873 159.402 174.98 159.687 175.131 159.942C175.286 160.197 175.493 160.402 175.753 160.557C176.017 160.708 176.345 160.783 176.737 160.783ZM182.37 151.185V161.685H181.105V151.185H182.37ZM182.069 157.707L181.543 157.686C181.548 157.18 181.623 156.713 181.769 156.285C181.914 155.852 182.119 155.476 182.384 155.157C182.648 154.838 182.963 154.592 183.327 154.418C183.696 154.241 184.104 154.152 184.551 154.152C184.915 154.152 185.243 154.202 185.535 154.302C185.827 154.398 186.075 154.553 186.28 154.767C186.49 154.981 186.649 155.259 186.759 155.601C186.868 155.938 186.923 156.351 186.923 156.838V161.685H185.651V156.825C185.651 156.437 185.594 156.127 185.48 155.895C185.367 155.658 185.2 155.487 184.981 155.382C184.763 155.273 184.494 155.218 184.175 155.218C183.86 155.218 183.573 155.284 183.313 155.417C183.058 155.549 182.837 155.731 182.65 155.963C182.468 156.196 182.325 156.462 182.22 156.763C182.119 157.059 182.069 157.374 182.069 157.707ZM188.481 158.069V157.912C188.481 157.378 188.559 156.884 188.714 156.428C188.869 155.968 189.092 155.569 189.384 155.232C189.675 154.89 190.029 154.626 190.443 154.439C190.858 154.248 191.323 154.152 191.838 154.152C192.357 154.152 192.825 154.248 193.239 154.439C193.659 154.626 194.014 154.89 194.306 155.232C194.602 155.569 194.827 155.968 194.982 156.428C195.137 156.884 195.215 157.378 195.215 157.912V158.069C195.215 158.602 195.137 159.097 194.982 159.552C194.827 160.008 194.602 160.407 194.306 160.749C194.014 161.086 193.661 161.35 193.246 161.542C192.836 161.728 192.371 161.822 191.852 161.822C191.332 161.822 190.865 161.728 190.45 161.542C190.035 161.35 189.68 161.086 189.384 160.749C189.092 160.407 188.869 160.008 188.714 159.552C188.559 159.097 188.481 158.602 188.481 158.069ZM189.746 157.912V158.069C189.746 158.438 189.789 158.787 189.876 159.115C189.963 159.438 190.092 159.725 190.266 159.976C190.443 160.227 190.664 160.425 190.929 160.571C191.193 160.712 191.501 160.783 191.852 160.783C192.198 160.783 192.501 160.712 192.761 160.571C193.025 160.425 193.244 160.227 193.417 159.976C193.59 159.725 193.72 159.438 193.807 159.115C193.898 158.787 193.943 158.438 193.943 158.069V157.912C193.943 157.547 193.898 157.203 193.807 156.879C193.72 156.551 193.588 156.262 193.41 156.011C193.237 155.756 193.018 155.556 192.754 155.41C192.494 155.264 192.189 155.191 191.838 155.191C191.492 155.191 191.186 155.264 190.922 155.41C190.662 155.556 190.443 155.756 190.266 156.011C190.092 156.262 189.963 156.551 189.876 156.879C189.789 157.203 189.746 157.547 189.746 157.912ZM196.466 158.069V157.912C196.466 157.378 196.543 156.884 196.698 156.428C196.853 155.968 197.076 155.569 197.368 155.232C197.66 154.89 198.013 154.626 198.428 154.439C198.842 154.248 199.307 154.152 199.822 154.152C200.342 154.152 200.809 154.248 201.224 154.439C201.643 154.626 201.998 154.89 202.29 155.232C202.586 155.569 202.812 155.968 202.967 156.428C203.122 156.884 203.199 157.378 203.199 157.912V158.069C203.199 158.602 203.122 159.097 202.967 159.552C202.812 160.008 202.586 160.407 202.29 160.749C201.998 161.086 201.645 161.35 201.23 161.542C200.82 161.728 200.355 161.822 199.836 161.822C199.316 161.822 198.849 161.728 198.435 161.542C198.02 161.35 197.664 161.086 197.368 160.749C197.076 160.407 196.853 160.008 196.698 159.552C196.543 159.097 196.466 158.602 196.466 158.069ZM197.73 157.912V158.069C197.73 158.438 197.774 158.787 197.86 159.115C197.947 159.438 198.077 159.725 198.25 159.976C198.428 160.227 198.649 160.425 198.913 160.571C199.177 160.712 199.485 160.783 199.836 160.783C200.182 160.783 200.485 160.712 200.745 160.571C201.009 160.425 201.228 160.227 201.401 159.976C201.575 159.725 201.704 159.438 201.791 159.115C201.882 158.787 201.928 158.438 201.928 158.069V157.912C201.928 157.547 201.882 157.203 201.791 156.879C201.704 156.551 201.572 156.262 201.395 156.011C201.221 155.756 201.003 155.556 200.738 155.41C200.479 155.264 200.173 155.191 199.822 155.191C199.476 155.191 199.171 155.264 198.906 155.41C198.646 155.556 198.428 155.756 198.25 156.011C198.077 156.262 197.947 156.551 197.86 156.879C197.774 157.203 197.73 157.547 197.73 157.912ZM209.092 159.723C209.092 159.541 209.051 159.372 208.969 159.217C208.891 159.058 208.729 158.914 208.483 158.787C208.242 158.654 207.877 158.541 207.39 158.445C206.979 158.358 206.608 158.256 206.275 158.137C205.947 158.019 205.667 157.875 205.435 157.707C205.207 157.538 205.031 157.34 204.908 157.112C204.785 156.884 204.724 156.617 204.724 156.312C204.724 156.02 204.787 155.745 204.915 155.485C205.047 155.225 205.232 154.995 205.469 154.794C205.71 154.594 206 154.437 206.337 154.323C206.674 154.209 207.05 154.152 207.465 154.152C208.057 154.152 208.563 154.257 208.982 154.466C209.402 154.676 209.723 154.956 209.946 155.307C210.17 155.653 210.281 156.039 210.281 156.462H209.017C209.017 156.257 208.955 156.059 208.832 155.868C208.714 155.672 208.538 155.51 208.306 155.382C208.078 155.255 207.798 155.191 207.465 155.191C207.114 155.191 206.829 155.246 206.61 155.355C206.396 155.46 206.239 155.594 206.139 155.758C206.043 155.922 205.995 156.096 205.995 156.278C205.995 156.415 206.018 156.538 206.063 156.647C206.114 156.752 206.2 156.85 206.323 156.941C206.446 157.028 206.619 157.11 206.843 157.187C207.066 157.264 207.351 157.342 207.697 157.419C208.303 157.556 208.802 157.72 209.194 157.912C209.586 158.103 209.878 158.338 210.069 158.616C210.261 158.894 210.356 159.231 210.356 159.627C210.356 159.951 210.288 160.247 210.151 160.516C210.019 160.785 209.826 161.017 209.57 161.213C209.32 161.405 209.019 161.555 208.668 161.665C208.322 161.769 207.932 161.822 207.499 161.822C206.847 161.822 206.296 161.706 205.845 161.473C205.394 161.241 205.052 160.94 204.819 160.571C204.587 160.202 204.471 159.812 204.471 159.402H205.742C205.76 159.748 205.861 160.024 206.043 160.229C206.225 160.43 206.449 160.573 206.713 160.66C206.977 160.742 207.239 160.783 207.499 160.783C207.845 160.783 208.135 160.737 208.367 160.646C208.604 160.555 208.784 160.43 208.907 160.27C209.03 160.111 209.092 159.928 209.092 159.723ZM215.087 161.822C214.572 161.822 214.105 161.735 213.686 161.562C213.271 161.384 212.913 161.136 212.612 160.817C212.316 160.498 212.088 160.12 211.929 159.682C211.769 159.245 211.689 158.766 211.689 158.247V157.959C211.689 157.358 211.778 156.822 211.956 156.353C212.134 155.879 212.375 155.478 212.681 155.15C212.986 154.822 213.332 154.573 213.72 154.405C214.107 154.236 214.508 154.152 214.923 154.152C215.451 154.152 215.907 154.243 216.29 154.425C216.677 154.608 216.994 154.863 217.24 155.191C217.486 155.514 217.669 155.897 217.787 156.339C217.906 156.777 217.965 157.255 217.965 157.775V158.342H212.441V157.31H216.7V157.214C216.682 156.886 216.614 156.567 216.495 156.257C216.381 155.947 216.199 155.692 215.948 155.492C215.698 155.291 215.356 155.191 214.923 155.191C214.636 155.191 214.371 155.252 214.13 155.375C213.888 155.494 213.681 155.672 213.508 155.909C213.335 156.146 213.2 156.435 213.104 156.777C213.009 157.119 212.961 157.513 212.961 157.959V158.247C212.961 158.597 213.009 158.928 213.104 159.238C213.205 159.543 213.348 159.812 213.535 160.044C213.727 160.277 213.957 160.459 214.226 160.591C214.499 160.723 214.809 160.79 215.155 160.79C215.602 160.79 215.98 160.698 216.29 160.516C216.6 160.334 216.871 160.09 217.104 159.785L217.869 160.393C217.71 160.635 217.507 160.865 217.261 161.083C217.015 161.302 216.712 161.48 216.352 161.617C215.996 161.753 215.575 161.822 215.087 161.822ZM227.275 160.42V156.613C227.275 156.321 227.216 156.068 227.098 155.854C226.984 155.635 226.811 155.467 226.578 155.348C226.346 155.23 226.059 155.17 225.717 155.17C225.398 155.17 225.118 155.225 224.876 155.334C224.639 155.444 224.452 155.587 224.315 155.765C224.183 155.943 224.117 156.134 224.117 156.339H222.853C222.853 156.075 222.921 155.813 223.058 155.553C223.194 155.293 223.39 155.059 223.646 154.849C223.905 154.635 224.215 154.466 224.575 154.343C224.94 154.216 225.345 154.152 225.792 154.152C226.33 154.152 226.804 154.243 227.214 154.425C227.629 154.608 227.952 154.883 228.185 155.252C228.422 155.617 228.54 156.075 228.54 156.626V160.072C228.54 160.318 228.561 160.58 228.602 160.858C228.647 161.136 228.713 161.375 228.8 161.576V161.685H227.48C227.417 161.539 227.367 161.346 227.33 161.104C227.294 160.858 227.275 160.63 227.275 160.42ZM227.494 157.201L227.508 158.089H226.229C225.869 158.089 225.548 158.119 225.266 158.178C224.983 158.233 224.746 158.317 224.555 158.431C224.363 158.545 224.217 158.689 224.117 158.862C224.017 159.03 223.967 159.229 223.967 159.457C223.967 159.689 224.019 159.901 224.124 160.092C224.229 160.284 224.386 160.436 224.596 160.55C224.81 160.66 225.072 160.714 225.382 160.714C225.769 160.714 226.111 160.632 226.407 160.468C226.703 160.304 226.938 160.104 227.111 159.867C227.289 159.63 227.385 159.4 227.398 159.176L227.938 159.785C227.907 159.976 227.82 160.188 227.679 160.42C227.537 160.653 227.348 160.876 227.111 161.09C226.879 161.3 226.601 161.475 226.277 161.617C225.958 161.753 225.598 161.822 225.197 161.822C224.696 161.822 224.256 161.724 223.878 161.528C223.504 161.332 223.213 161.07 223.003 160.742C222.798 160.409 222.695 160.038 222.695 159.627C222.695 159.231 222.773 158.882 222.928 158.582C223.083 158.276 223.306 158.023 223.598 157.823C223.889 157.618 224.24 157.463 224.65 157.358C225.061 157.253 225.519 157.201 226.024 157.201H227.494ZM235.69 161.685H234.426V153.646C234.426 153.085 234.535 152.611 234.754 152.224C234.973 151.837 235.285 151.543 235.69 151.342C236.096 151.142 236.577 151.042 237.133 151.042C237.461 151.042 237.782 151.083 238.097 151.165C238.411 151.242 238.735 151.34 239.067 151.458L238.855 152.525C238.646 152.443 238.402 152.365 238.124 152.292C237.851 152.215 237.55 152.176 237.222 152.176C236.679 152.176 236.287 152.299 236.046 152.545C235.809 152.787 235.69 153.154 235.69 153.646V161.685ZM237.201 154.289V155.259H233.257V154.289H237.201ZM239.689 154.289V161.685H238.425V154.289H239.689ZM243.142 151.185V161.685H241.87V151.185H243.142ZM248.241 161.822C247.726 161.822 247.259 161.735 246.84 161.562C246.425 161.384 246.067 161.136 245.767 160.817C245.47 160.498 245.243 160.12 245.083 159.682C244.924 159.245 244.844 158.766 244.844 158.247V157.959C244.844 157.358 244.933 156.822 245.11 156.353C245.288 155.879 245.53 155.478 245.835 155.15C246.14 154.822 246.487 154.573 246.874 154.405C247.261 154.236 247.662 154.152 248.077 154.152C248.606 154.152 249.062 154.243 249.444 154.425C249.832 154.608 250.148 154.863 250.395 155.191C250.641 155.514 250.823 155.897 250.941 156.339C251.06 156.777 251.119 157.255 251.119 157.775V158.342H245.596V157.31H249.854V157.214C249.836 156.886 249.768 156.567 249.649 156.257C249.535 155.947 249.353 155.692 249.103 155.492C248.852 155.291 248.51 155.191 248.077 155.191C247.79 155.191 247.526 155.252 247.284 155.375C247.043 155.494 246.835 155.672 246.662 155.909C246.489 156.146 246.354 156.435 246.259 156.777C246.163 157.119 246.115 157.513 246.115 157.959V158.247C246.115 158.597 246.163 158.928 246.259 159.238C246.359 159.543 246.503 159.812 246.689 160.044C246.881 160.277 247.111 160.459 247.38 160.591C247.653 160.723 247.963 160.79 248.31 160.79C248.756 160.79 249.134 160.698 249.444 160.516C249.754 160.334 250.025 160.09 250.258 159.785L251.023 160.393C250.864 160.635 250.661 160.865 250.415 161.083C250.169 161.302 249.866 161.48 249.506 161.617C249.15 161.753 248.729 161.822 248.241 161.822Z" fill="#A7A7A7"/>
<path d="M95.8286 83.8541C76.9731 86.8186 67.3682 74.6504 67.3682 62.1023C67.3682 49.5541 77.9669 39.3821 91.0439 39.3821" stroke="#9D9D9D" stroke-width="3" stroke-miterlimit="10"/>
<path d="M157.049 83.8541C175.896 86.8186 185.508 74.6504 185.508 62.1023C185.508 49.5541 174.91 39.3821 161.833 39.3821" stroke="#9D9D9D" stroke-width="3" stroke-miterlimit="10"/>
<path d="M161.67 41.5102C162.095 16.7438 146.176 1.74707 126.559 1.74707C106.941 1.74707 90.7637 16.0662 90.6899 41.479" stroke="#9D9D9D" stroke-width="3" stroke-miterlimit="10"/>
<path d="M126.31 61.8514V116.992" stroke="#9D9D9D" stroke-width="3" stroke-linecap="round"/>
<path d="M142.284 77.6968L126.438 61.8511L110.593 77.6968" stroke="#9D9D9D" stroke-width="3" stroke-linecap="round" stroke-linejoin="round"/>
</svg>
