<svg width="22" height="28" viewBox="0 0 22 28" fill="none" xmlns="http://www.w3.org/2000/svg">
<path d="M14.424 1.47246L1.84923 1.58358C1.62767 1.58358 1.44742 1.76384 1.44742 1.9854V25.861C1.44742 26.0826 1.62767 26.2629 1.84923 26.2629H19.9618C20.1833 26.2629 20.3636 26.0826 20.3636 25.8568L20.427 7.44688C19.4445 6.44089 18.9917 6.00897 18.4756 5.51668C17.7405 4.81538 16.912 4.02502 14.424 1.47246ZM14.9448 0.223022C19.8524 5.26894 18.8105 3.99218 21.6735 6.94288L21.6084 25.861C21.6084 26.7704 20.8712 27.5076 19.9618 27.5076H1.84923C0.939833 27.5076 0.202637 26.7704 0.202637 25.861V1.9854C0.202637 1.07601 0.939833 0.3388 1.84923 0.3388L14.9448 0.223022Z" fill="#707070"/>
<path d="M14.6007 0.730591V5.62508C14.6007 5.62508 14.546 6.86985 16.5177 6.80885C18.4894 6.74786 20.75 6.80885 20.75 6.80885" stroke="#707070" stroke-width="1.5"/>
<path d="M5.37988 10.6311H15.5703" stroke="#707070" stroke-width="1.5" stroke-linecap="round"/>
<path d="M5.37988 13.9218H15.5703" stroke="#707070" stroke-width="1.5" stroke-linecap="round"/>
<path d="M5.37988 19.6868H15.5703" stroke="#707070" stroke-width="1.5" stroke-linecap="round"/>
<path d="M5.37988 16.3932H15.5703" stroke="#707070" stroke-width="1.5" stroke-linecap="round"/>
</svg>
