<svg width="35" height="26" viewBox="0 0 35 26" fill="none" xmlns="http://www.w3.org/2000/svg">
<path d="M2.0075 0.130859H32.9928C33.5451 0.130859 34.0469 0.354255 34.4104 0.712981C34.7741 1.07227 35 1.56886 35 2.11384V23.1476C35 23.5587 34.8715 23.9416 34.6522 24.2592C34.6121 24.3619 34.5494 24.4576 34.4637 24.5389C34.4064 24.5921 34.3435 24.6357 34.2768 24.6686C33.9279 24.9559 33.4796 25.1309 32.9928 25.1309H2.0075C1.45578 25.1309 0.953336 24.9077 0.58932 24.5485C0.226157 24.1894 0 23.6937 0 23.1476V2.11384C0 1.56773 0.225588 1.07171 0.589035 0.712981C0.952482 0.353692 1.45464 0.130859 2.0075 0.130859ZM1.53981 22.3134L12.3988 11.56L1.53981 2.81441V22.3134ZM13.5948 12.5231L2.39943 23.6096H32.5066L21.8077 12.5248L18.2806 15.4934C18.004 15.7269 17.5899 15.7401 17.2971 15.5055L13.5948 12.5231ZM22.9786 11.5395L33.4602 22.3992V2.71875L22.9786 11.5395ZM2.52561 1.65186L17.7702 13.9299L32.3602 1.65186H2.52561Z" fill="#727272"/>
</svg>
