<svg width="731" height="635" viewBox="0 0 731 635" fill="none" xmlns="http://www.w3.org/2000/svg">
<g clip-path="url(#clip0_536_7222)">
<path d="M501.713 194.873H270.858C265.492 194.873 261.142 199.216 261.142 204.574V339.326C261.142 344.684 265.492 349.027 270.858 349.027H501.713C507.079 349.027 511.43 344.684 511.43 339.326V204.574C511.43 199.216 507.079 194.873 501.713 194.873Z" fill="#F0F3F5"/>
<path d="M511.469 204.613V211.575H261.142V204.613C261.142 203.336 261.394 202.071 261.885 200.892C262.376 199.712 263.095 198.641 264.001 197.74C264.908 196.838 265.984 196.125 267.167 195.639C268.351 195.154 269.618 194.907 270.898 194.912H501.87C504.43 194.933 506.877 195.965 508.676 197.783C510.475 199.602 511.479 202.057 511.469 204.613Z" fill="#B5AFE1"/>
<path d="M477.146 203.205C477.146 203.916 476.935 204.612 476.539 205.204C476.143 205.796 475.58 206.257 474.921 206.529C474.262 206.802 473.538 206.873 472.838 206.734C472.139 206.595 471.497 206.253 470.993 205.749C470.489 205.246 470.145 204.605 470.006 203.907C469.867 203.209 469.939 202.485 470.211 201.828C470.484 201.17 470.946 200.608 471.539 200.213C472.132 199.817 472.829 199.606 473.542 199.606C474.498 199.606 475.415 199.985 476.091 200.66C476.767 201.335 477.146 202.25 477.146 203.205Z" fill="white"/>
<path d="M488.117 203.205C488.117 203.918 487.905 204.615 487.507 205.208C487.109 205.801 486.544 206.262 485.883 206.533C485.222 206.804 484.495 206.873 483.795 206.731C483.094 206.589 482.452 206.242 481.95 205.735C481.447 205.228 481.107 204.583 480.972 203.883C480.838 203.182 480.915 202.457 481.193 201.8C481.472 201.143 481.94 200.584 482.538 200.194C483.136 199.803 483.837 199.598 484.552 199.606C485.023 199.606 485.49 199.699 485.925 199.881C486.36 200.062 486.755 200.328 487.087 200.663C487.418 200.997 487.68 201.394 487.857 201.831C488.034 202.267 488.122 202.734 488.117 203.205Z" fill="white"/>
<path d="M499.127 203.205C499.127 203.916 498.915 204.612 498.519 205.204C498.123 205.796 497.56 206.257 496.902 206.529C496.243 206.802 495.518 206.873 494.819 206.734C494.12 206.595 493.477 206.253 492.973 205.749C492.469 205.246 492.126 204.605 491.987 203.907C491.848 203.209 491.919 202.485 492.192 201.828C492.465 201.17 492.927 200.608 493.52 200.213C494.112 199.817 494.809 199.606 495.522 199.606C496.478 199.606 497.395 199.985 498.071 200.66C498.747 201.335 499.127 202.25 499.127 203.205Z" fill="white"/>
<path d="M342.285 240.325H283.906V249.165H342.285V240.325Z" fill="#B5AFE1"/>
<path d="M410.382 249.283H350.043V240.208H410.382V249.283ZM352.002 247.327H408.423V242.164H352.002V247.327Z" fill="#B5AFE1"/>
<path d="M467.194 259.375H283.906V261.135H467.194V259.375Z" fill="#B5AFE1"/>
<path d="M421.784 270.444H283.906V272.204H421.784V270.444Z" fill="#B5AFE1"/>
<path d="M371.514 281.514H283.906V283.274H371.514V281.514Z" fill="#B5AFE1"/>
<path d="M467.194 281.514H377.822V283.274H467.194V281.514Z" fill="#B5AFE1"/>
<path d="M467.155 270.444H428.405V272.204H467.155V270.444Z" fill="#B5AFE1"/>
<path d="M395.963 292.583H283.906V294.344H395.963V292.583Z" fill="#B5AFE1"/>
<path d="M467.194 303.184H283.906V304.944H467.194V303.184Z" fill="#B5AFE1"/>
<path d="M103.046 147.426H91.1348V161.117H103.046V147.426Z" fill="#6C60C2"/>
<path d="M118.993 124.622H107.082V161.117H118.993V124.622Z" fill="#6C60C2"/>
<path d="M134.978 110.188H123.067V161.117H134.978V110.188Z" fill="#6C60C2"/>
<path d="M150.964 124.622H139.053V161.117H150.964V124.622Z" fill="#6C60C2"/>
<path d="M166.95 81.321H155.039V161.117H166.95V81.321Z" fill="#6C60C2"/>
<path d="M182.388 68.3738H170.477V161.117H182.388V68.3738Z" fill="#6C60C2"/>
<path d="M265.06 148.991H276.971V140.933H265.06V148.991Z" fill="#9188D1"/>
<path d="M249.074 162.407H260.985V140.894H249.074V162.407Z" fill="#9188D1"/>
<path d="M233.088 170.895H244.999V140.894H233.088V170.895Z" fill="#9188D1"/>
<path d="M217.102 162.407H229.013V140.894H217.102V162.407Z" fill="#9188D1"/>
<path d="M201.116 187.872H213.027V140.894H201.116V187.872Z" fill="#9188D1"/>
<path d="M185.718 195.499H197.629V140.894H185.718V195.499Z" fill="#9188D1"/>
<g opacity="0.8">
<path d="M683.669 141.324H573.453C570.878 141.324 568.791 143.408 568.791 145.979V210.285C568.791 212.855 570.878 214.939 573.453 214.939H683.669C686.244 214.939 688.332 212.855 688.332 210.285V145.979C688.332 143.408 686.244 141.324 683.669 141.324Z" fill="#F0F3F5"/>
<path d="M688.371 145.94V149.265H568.83V145.94C568.825 145.33 568.94 144.726 569.17 144.161C569.4 143.597 569.74 143.083 570.17 142.651C570.6 142.218 571.111 141.874 571.675 141.64C572.238 141.406 572.843 141.285 573.453 141.285H683.708C684.945 141.285 686.131 141.775 687.005 142.648C687.88 143.521 688.371 144.705 688.371 145.94Z" fill="#B5AFE1"/>
<path d="M671.954 145.314C671.954 145.656 671.852 145.99 671.661 146.274C671.47 146.558 671.198 146.778 670.881 146.907C670.563 147.036 670.215 147.068 669.879 146.998C669.544 146.929 669.237 146.761 668.997 146.516C668.758 146.272 668.597 145.961 668.535 145.625C668.473 145.289 668.513 144.941 668.649 144.628C668.786 144.314 669.013 144.048 669.301 143.864C669.59 143.679 669.927 143.585 670.27 143.593C670.72 143.603 671.148 143.789 671.463 144.111C671.778 144.432 671.954 144.864 671.954 145.314Z" fill="white"/>
<path d="M677.204 145.314C677.204 145.656 677.102 145.99 676.911 146.274C676.72 146.558 676.448 146.778 676.131 146.907C675.813 147.036 675.465 147.068 675.129 146.998C674.794 146.929 674.487 146.761 674.247 146.516C674.008 146.272 673.847 145.961 673.785 145.625C673.723 145.289 673.763 144.941 673.899 144.628C674.036 144.314 674.263 144.048 674.551 143.864C674.84 143.679 675.177 143.585 675.52 143.593C675.97 143.603 676.398 143.789 676.713 144.111C677.028 144.432 677.204 144.864 677.204 145.314Z" fill="white"/>
<path d="M682.455 145.314C682.455 145.656 682.353 145.99 682.161 146.274C681.97 146.558 681.698 146.778 681.381 146.907C681.064 147.036 680.715 147.068 680.38 146.998C680.044 146.929 679.737 146.761 679.498 146.516C679.258 146.272 679.097 145.961 679.035 145.625C678.973 145.289 679.013 144.941 679.15 144.628C679.286 144.314 679.513 144.048 679.802 143.864C680.09 143.679 680.427 143.585 680.77 143.593C681.22 143.603 681.649 143.789 681.964 144.111C682.279 144.432 682.455 144.864 682.455 145.314Z" fill="white"/>
<g opacity="0.8">
<path d="M614.711 206.647C609.281 203.911 604.934 199.428 602.372 193.921C599.81 188.414 599.183 182.206 600.592 176.3C602.001 170.393 605.363 165.133 610.137 161.37C614.91 157.607 620.814 155.561 626.896 155.562V164.441C622.819 164.444 618.861 165.818 615.662 168.341C612.463 170.864 610.208 174.39 609.262 178.349C608.316 182.308 608.733 186.47 610.447 190.164C612.16 193.857 615.07 196.867 618.707 198.706L614.711 206.647Z" fill="#120E2D"/>
<path d="M640.178 194.834C638.487 196.671 636.435 198.14 634.15 199.149C631.864 200.159 629.395 200.687 626.896 200.701C624.052 200.722 621.245 200.065 618.707 198.785L614.789 206.608C618.564 208.523 622.74 209.515 626.974 209.502C630.697 209.489 634.378 208.719 637.793 207.24C641.209 205.76 644.286 203.602 646.839 200.897L640.178 194.834Z" fill="#9188D1"/>
<path d="M646.84 200.897L640.179 194.834C643.291 191.501 645.015 187.109 644.998 182.552H653.931C653.955 189.338 651.423 195.886 646.84 200.897Z" fill="#6C60C2"/>
<path d="M653.931 182.552H644.998C645.003 180.175 644.538 177.821 643.631 175.624C642.724 173.427 641.391 171.43 639.71 169.748C638.028 168.066 636.031 166.731 633.832 165.821C631.633 164.91 629.276 164.441 626.896 164.441V155.562C634.063 155.572 640.933 158.419 646.001 163.479C651.069 168.538 653.921 175.397 653.931 182.552Z" fill="#4738B3"/>
</g>
</g>
<path d="M546.183 460.193H72.0933V156.071C72.0933 151.921 73.7445 147.941 76.6836 145.007C79.6228 142.073 83.6091 140.424 87.7657 140.424H530.511C534.668 140.424 538.654 142.073 541.593 145.007C544.532 147.941 546.183 151.921 546.183 156.071V460.193ZM73.0728 459.215H545.204V156.071C545.204 152.18 543.656 148.449 540.9 145.699C538.145 142.948 534.408 141.402 530.511 141.402H87.7657C83.8721 141.413 80.1409 142.961 77.3877 145.71C74.6344 148.459 73.0831 152.184 73.0728 156.071V459.215Z" fill="#4738B3"/>
<path d="M526.514 443.569H91.8009C89.9128 443.559 88.105 442.806 86.7699 441.473C85.4348 440.14 84.6802 438.335 84.6699 436.45V167.688C84.6803 165.807 85.4361 164.006 86.7723 162.679C88.1085 161.353 89.9164 160.608 91.8009 160.608H526.71C528.588 160.618 530.386 161.368 531.713 162.693C533.041 164.019 533.792 165.813 533.802 167.688V436.45C533.802 437.398 533.613 438.337 533.244 439.211C532.876 440.085 532.337 440.877 531.658 441.54C530.979 442.203 530.175 442.724 529.291 443.073C528.408 443.421 527.464 443.59 526.514 443.569ZM91.8009 161.586C90.1762 161.586 88.6174 162.228 87.465 163.371C86.3125 164.514 85.6598 166.066 85.6494 167.688V436.45C85.6494 438.079 86.2976 439.641 87.4512 440.793C88.6048 441.944 90.1694 442.591 91.8009 442.591H526.71C527.516 442.591 528.314 442.432 529.058 442.123C529.802 441.814 530.478 441.361 531.046 440.79C531.614 440.219 532.063 439.542 532.368 438.797C532.673 438.052 532.827 437.255 532.822 436.45V167.688C532.823 166.87 532.658 166.06 532.339 165.307C532.02 164.553 531.552 163.872 530.963 163.303C530.375 162.733 529.678 162.288 528.913 161.993C528.149 161.698 527.333 161.56 526.514 161.586H91.8009Z" fill="#4738B3"/>
<path d="M309.138 155.367C308.435 155.359 307.749 155.144 307.168 154.748C306.587 154.352 306.136 153.793 305.872 153.142C305.608 152.491 305.543 151.777 305.685 151.089C305.827 150.401 306.17 149.77 306.67 149.277C307.17 148.783 307.805 148.448 308.496 148.313C309.187 148.179 309.901 148.252 310.551 148.522C311.2 148.793 311.754 149.249 312.144 149.834C312.535 150.418 312.743 151.105 312.743 151.807C312.743 152.278 312.649 152.744 312.468 153.178C312.286 153.613 312.02 154.007 311.685 154.338C311.349 154.669 310.952 154.93 310.515 155.107C310.077 155.283 309.61 155.372 309.138 155.367ZM309.138 149.225C308.452 149.225 307.794 149.497 307.31 149.982C306.825 150.466 306.552 151.122 306.552 151.807C306.552 152.492 306.825 153.148 307.31 153.633C307.794 154.117 308.452 154.389 309.138 154.389C309.478 154.389 309.814 154.322 310.128 154.192C310.441 154.062 310.726 153.872 310.967 153.633C311.207 153.393 311.397 153.108 311.527 152.795C311.657 152.482 311.724 152.146 311.724 151.807C311.724 151.468 311.657 151.132 311.527 150.819C311.397 150.506 311.207 150.221 310.967 149.982C310.726 149.742 310.441 149.552 310.128 149.422C309.814 149.292 309.478 149.225 309.138 149.225Z" fill="#4738B3"/>
<path d="M573.61 474.509H46.6647C38.8285 474.509 19.9824 468.094 19.9824 459.685V459.215H600.292V459.685C600.292 468.094 581.368 474.509 573.61 474.509ZM21.1578 460.193C21.9415 467.508 39.9255 473.531 46.8214 473.531H573.61C580.506 473.531 598.49 467.508 599.274 460.193H21.1578Z" fill="#4738B3"/>
<path d="M353.726 465.787H266.784C265.163 465.787 263.608 465.144 262.462 463.999C261.315 462.855 260.671 461.303 260.671 459.685V459.215H359.839V459.685C359.839 461.303 359.195 462.855 358.048 463.999C356.902 465.144 355.347 465.787 353.726 465.787ZM261.69 460.193C261.808 461.459 262.396 462.635 263.338 463.489C264.281 464.343 265.51 464.814 266.784 464.809H353.726C355.001 464.806 356.23 464.334 357.178 463.482C358.125 462.63 358.724 461.459 358.859 460.193H261.69Z" fill="#4738B3"/>
<path d="M717.717 474.509H628.698C625.847 474.509 623.113 473.382 621.093 471.373C619.074 469.364 617.934 466.638 617.923 463.792V253.155C617.934 250.309 619.074 247.583 621.093 245.574C623.113 243.565 625.847 242.437 628.698 242.438H717.717C720.565 242.438 723.295 243.567 725.309 245.577C727.322 247.587 728.453 250.313 728.453 253.155V463.792C728.453 465.199 728.175 466.593 727.636 467.893C727.096 469.194 726.305 470.375 725.309 471.37C724.312 472.366 723.128 473.155 721.826 473.694C720.523 474.232 719.127 474.509 717.717 474.509ZM628.698 243.415C626.107 243.415 623.622 244.44 621.786 246.266C619.95 248.091 618.913 250.568 618.903 253.155V463.792C618.913 466.378 619.95 468.856 621.786 470.681C623.622 472.507 626.107 473.532 628.698 473.532H717.717C720.302 473.521 722.777 472.492 724.605 470.667C726.432 468.843 727.463 466.372 727.473 463.792V253.155C727.463 250.575 726.432 248.104 724.605 246.279C722.777 244.455 720.302 243.426 717.717 243.415H628.698Z" fill="#4738B3"/>
<path d="M717.952 462.149H628.463C626.489 462.149 624.595 461.366 623.199 459.972C621.803 458.578 621.019 456.688 621.019 454.717V262.23C621.029 260.266 621.818 258.385 623.213 257C624.608 255.615 626.495 254.837 628.463 254.837H717.952C719.92 254.837 721.808 255.615 723.203 257C724.598 258.385 725.386 260.266 725.397 262.23V454.717C725.397 456.688 724.612 458.578 723.216 459.972C721.82 461.366 719.927 462.149 717.952 462.149ZM628.463 255.815C627.616 255.81 626.776 255.972 625.992 256.292C625.208 256.612 624.495 257.084 623.894 257.68C623.293 258.276 622.816 258.985 622.491 259.766C622.166 260.547 621.998 261.384 621.998 262.23V454.717C621.998 456.429 622.679 458.07 623.892 459.281C625.104 460.491 626.748 461.171 628.463 461.171H717.952C719.667 461.171 721.311 460.491 722.524 459.281C723.736 458.07 724.417 456.429 724.417 454.717V262.23C724.417 261.384 724.25 260.547 723.924 259.766C723.599 258.985 723.122 258.276 722.521 257.68C721.921 257.084 721.207 256.612 720.423 256.292C719.639 255.972 718.799 255.81 717.952 255.815H628.463Z" fill="#4738B3"/>
<path d="M731 294.852H730.021V323.446H731V294.852Z" fill="#4738B3"/>
<path d="M731 334.085H730.021V347.658H731V334.085Z" fill="#4738B3"/>
<path d="M698.989 252.686C698.521 252.694 698.061 252.561 697.668 252.307C697.276 252.052 696.968 251.686 696.786 251.255C696.603 250.825 696.553 250.35 696.642 249.891C696.732 249.432 696.957 249.01 697.288 248.68C697.619 248.349 698.041 248.125 698.501 248.035C698.961 247.946 699.436 247.996 699.868 248.178C700.299 248.361 700.665 248.668 700.921 249.06C701.176 249.451 701.308 249.911 701.301 250.378C701.301 250.99 701.057 251.577 700.624 252.01C700.19 252.443 699.602 252.686 698.989 252.686ZM698.989 248.774C698.671 248.774 698.361 248.868 698.096 249.045C697.832 249.221 697.626 249.471 697.505 249.764C697.383 250.057 697.351 250.38 697.413 250.691C697.475 251.002 697.628 251.288 697.853 251.512C698.078 251.736 698.364 251.889 698.675 251.951C698.987 252.013 699.31 251.981 699.604 251.86C699.897 251.738 700.148 251.533 700.325 251.269C700.501 251.005 700.595 250.695 700.595 250.378C700.595 250.167 700.554 249.959 700.473 249.764C700.392 249.57 700.274 249.393 700.125 249.244C699.976 249.095 699.798 248.977 699.604 248.896C699.409 248.816 699.2 248.774 698.989 248.774Z" fill="#4738B3"/>
<path d="M680.025 252.021H666.43C666.032 251.96 665.669 251.758 665.407 251.454C665.145 251.149 665.001 250.76 665.001 250.358C665.001 249.957 665.145 249.568 665.407 249.263C665.669 248.958 666.032 248.757 666.43 248.696H680.104C680.501 248.757 680.864 248.958 681.126 249.263C681.388 249.568 681.532 249.957 681.532 250.358C681.532 250.76 681.388 251.149 681.126 251.454C680.864 251.758 680.501 251.96 680.104 252.021H680.025ZM666.43 249.439C666.218 249.483 666.028 249.598 665.891 249.766C665.755 249.933 665.68 250.143 665.68 250.358C665.68 250.574 665.755 250.784 665.891 250.951C666.028 251.118 666.218 251.234 666.43 251.278H680.104C680.241 251.306 680.382 251.303 680.518 251.27C680.653 251.237 680.78 251.175 680.888 251.087C680.997 250.998 681.084 250.887 681.144 250.762C681.204 250.636 681.235 250.498 681.235 250.358C681.235 250.219 681.204 250.081 681.144 249.955C681.084 249.829 680.997 249.718 680.888 249.63C680.78 249.542 680.653 249.479 680.518 249.446C680.382 249.413 680.241 249.411 680.104 249.439H666.43Z" fill="#4738B3"/>
<path d="M678.576 457.181H667.84C667.366 457.171 666.913 456.979 666.577 456.643C666.241 456.308 666.048 455.856 666.038 455.382C666.048 454.912 666.243 454.464 666.58 454.135C666.917 453.806 667.369 453.622 667.84 453.622H678.576C679.044 453.622 679.492 453.807 679.823 454.137C680.153 454.467 680.339 454.915 680.339 455.382C680.339 455.853 680.155 456.304 679.825 456.641C679.496 456.977 679.047 457.171 678.576 457.181ZM667.84 454.6C667.734 454.594 667.628 454.611 667.529 454.648C667.429 454.685 667.338 454.741 667.261 454.815C667.184 454.888 667.123 454.976 667.081 455.073C667.039 455.171 667.017 455.276 667.018 455.382C667.018 455.6 667.104 455.809 667.259 455.963C667.413 456.117 667.622 456.203 667.84 456.203H678.576C678.787 456.193 678.987 456.102 679.133 455.949C679.279 455.796 679.36 455.593 679.36 455.382C679.36 455.175 679.277 454.976 679.13 454.829C678.983 454.682 678.784 454.6 678.576 454.6H667.84Z" fill="#4738B3"/>
<path d="M310.118 219.125H42.668C36.4576 219.125 31.4231 224.151 31.4231 230.351V386.461C31.4231 392.661 36.4576 397.687 42.668 397.687H310.118C316.328 397.687 321.363 392.661 321.363 386.461V230.351C321.363 224.151 316.328 219.125 310.118 219.125Z" fill="white"/>
<path d="M321.402 230.39V238.448H31.4625V230.39C31.4573 228.912 31.7443 227.448 32.3071 226.082C32.87 224.715 33.6974 223.473 34.7422 222.427C35.7869 221.38 37.0282 220.55 38.3951 219.983C39.7619 219.416 41.2274 219.125 42.7074 219.125H310.118C313.11 219.125 315.981 220.312 318.097 222.424C320.213 224.537 321.402 227.402 321.402 230.39Z" fill="#4738B3"/>
<path d="M281.633 228.786C281.633 229.886 281.195 230.941 280.417 231.718C279.638 232.496 278.581 232.932 277.48 232.932C276.378 232.932 275.322 232.496 274.543 231.718C273.764 230.941 273.327 229.886 273.327 228.786C273.327 227.687 273.764 226.632 274.543 225.854C275.322 225.077 276.378 224.64 277.48 224.64C278.581 224.64 279.638 225.077 280.417 225.854C281.195 226.632 281.633 227.687 281.633 228.786Z" fill="white"/>
<path d="M294.21 228.786C294.21 229.886 293.773 230.941 292.994 231.718C292.215 232.496 291.158 232.932 290.057 232.932C288.955 232.932 287.899 232.496 287.12 231.718C286.341 230.941 285.904 229.886 285.904 228.786C285.904 227.687 286.341 226.632 287.12 225.854C287.899 225.077 288.955 224.64 290.057 224.64C291.158 224.64 292.215 225.077 292.994 225.854C293.773 226.632 294.21 227.687 294.21 228.786Z" fill="white"/>
<path d="M307.101 228.786C307.101 229.886 306.663 230.941 305.884 231.718C305.106 232.496 304.049 232.932 302.948 232.932C301.846 232.932 300.79 232.496 300.011 231.718C299.232 230.941 298.794 229.886 298.794 228.786C298.794 227.687 299.232 226.632 300.011 225.854C300.79 225.077 301.846 224.64 302.948 224.64C304.049 224.64 305.106 225.077 305.884 225.854C306.663 226.632 307.101 227.687 307.101 228.786Z" fill="white"/>
<path style="mix-blend-mode:multiply" d="M183.916 327.787C183.923 344.128 179.077 360.104 169.989 373.695C160.901 387.285 147.98 397.88 132.86 404.139C117.74 410.397 101.1 412.039 85.0456 408.856C68.991 405.673 54.2427 397.808 42.6659 386.256C31.0892 374.704 23.2041 359.984 20.008 343.958C16.8118 327.931 18.4483 311.319 24.7103 296.221C30.9723 281.124 41.5786 268.219 55.1877 259.14C68.7967 250.061 84.7972 245.215 101.165 245.215C123.105 245.215 144.147 253.913 159.665 269.397C175.182 284.882 183.905 305.884 183.916 327.787Z" fill="url(#paint0_radial_536_7222)"/>
<path d="M154.804 312.376C154.804 325.862 149.438 338.796 139.886 348.332C130.333 357.869 117.378 363.226 103.869 363.226H101.322V312.376H154.961H154.804Z" fill="#9188D1"/>
<path d="M101.165 261.409V363.304C87.6564 363.304 74.7008 357.947 65.1486 348.411C55.5964 338.874 50.23 325.94 50.23 312.454C50.23 298.968 55.5964 286.034 65.1486 276.498C74.7008 266.961 87.6564 261.604 101.165 261.604V261.409Z" fill="#352A86"/>
<path d="M154.804 312.376H101.166L138.544 275.06C143.682 279.827 147.778 285.602 150.576 292.023C153.374 298.444 154.814 305.373 154.804 312.376Z" fill="#6C60C2"/>
<path d="M138.544 275.021L101.166 312.337V261.487H103.712C116.371 261.48 128.579 266.179 137.956 274.669L138.544 275.021Z" fill="#4738B3"/>
<path d="M237.123 266.885H184.229V276.664H237.123V266.885Z" fill="#4738B3"/>
<path d="M300.792 287.929H184.229V289.885H300.792V287.929Z" fill="#4738B3"/>
<path d="M300.792 300.133H184.229V302.089H300.792V300.133Z" fill="#4738B3"/>
<path d="M300.792 312.376H184.229V314.332H300.792V312.376Z" fill="#4738B3"/>
<path d="M255.499 324.619H184.229V326.575H255.499V324.619Z" fill="#4738B3"/>
<path d="M486.746 0H305.142C300.922 0 297.501 3.41495 297.501 7.62751V113.63C297.501 117.843 300.922 121.258 305.142 121.258H486.746C490.965 121.258 494.386 117.843 494.386 113.63V7.62751C494.386 3.41495 490.965 0 486.746 0Z" fill="#E9E5F6"/>
<path d="M494.386 7.62754V12.9472H297.501V7.47107C297.553 5.43035 298.401 3.49041 299.865 2.06533C301.329 0.640249 303.293 -0.157071 305.338 -0.156433H486.902C488.912 -0.066067 490.81 0.792546 492.203 2.24159C493.596 3.69063 494.378 5.61907 494.386 7.62754Z" fill="#4738B3"/>
<path d="M464.569 9.38775C466.127 9.38775 467.39 8.12684 467.39 6.57144C467.39 5.01603 466.127 3.75513 464.569 3.75513C463.011 3.75513 461.748 5.01603 461.748 6.57144C461.748 8.12684 463.011 9.38775 464.569 9.38775Z" fill="white"/>
<path d="M473.189 9.38775C474.747 9.38775 476.01 8.12684 476.01 6.57144C476.01 5.01603 474.747 3.75513 473.189 3.75513C471.631 3.75513 470.368 5.01603 470.368 6.57144C470.368 8.12684 471.631 9.38775 473.189 9.38775Z" fill="white"/>
<path d="M481.848 9.38775C483.406 9.38775 484.669 8.12684 484.669 6.57144C484.669 5.01603 483.406 3.75513 481.848 3.75513C480.29 3.75513 479.027 5.01603 479.027 6.57144C479.027 8.12684 480.29 9.38775 481.848 9.38775Z" fill="white"/>
<path d="M483.258 109.836V31.6053C483.258 31.6053 457.987 73.4197 440.159 72.2071C427.935 71.3857 403.603 24.5254 385.698 39.1546C370.025 51.9844 362.189 79.952 349.494 81.0081C326.691 82.9639 308.707 59.3381 308.707 59.3381V109.836H483.258Z" fill="#9188D1"/>
<path d="M309.648 110.149L307.649 109.484C311.926 96.9166 316.884 84.5902 322.499 72.5591C327.749 61.685 332.647 56.3653 337.897 55.8177C344.558 55.1136 350.2 62.4282 356.195 70.134C362.189 77.8397 368.654 86.2495 376.49 86.5234C380.996 86.5234 386.403 74.7887 391.614 63.6017C397.805 50.2242 404.231 36.2209 411.832 34.2651C412.971 33.9566 414.165 33.9089 415.325 34.1256C416.485 34.3423 417.581 34.8179 418.532 35.5168C426.368 40.7583 429.385 52.2582 432.049 62.4282C434.713 72.5983 436.829 80.6169 442.354 79.952C447.878 79.287 452.737 73.4979 456.929 68.2173C461.827 62.2327 466.45 56.4827 471.818 60.3942C479.341 65.6357 481.77 87.775 483.376 102.248C483.69 105.26 483.964 107.88 484.238 109.68L482.201 109.993C481.927 108.154 481.652 105.533 481.3 102.482C479.928 90.0046 477.382 66.8092 470.642 62.0762C467.038 59.5728 463.707 63.3279 458.535 69.6646C454.108 75.1016 449.054 81.3992 442.589 82.0251C435.262 82.8465 432.833 73.6152 430.051 62.9367C427.465 53.1188 424.566 42.01 417.395 37.2379C416.697 36.7039 415.885 36.338 415.022 36.1684C414.159 35.9988 413.268 36.0301 412.419 36.26C405.68 38.1375 399.215 51.9062 393.495 64.4622C387.461 77.5268 382.172 88.8312 376.295 88.5965C367.636 88.2835 360.975 79.6781 354.51 71.3857C348.907 64.1493 343.578 57.3041 338.093 57.8909C333.666 58.3211 329.199 63.4452 324.341 73.537C318.752 85.4533 313.847 97.677 309.648 110.149Z" fill="#6C60C2"/>
<path d="M652.716 316.248C647.842 316.248 643.077 314.805 639.024 312.102C634.971 309.398 631.813 305.556 629.947 301.06C628.082 296.564 627.594 291.617 628.545 286.845C629.496 282.072 631.843 277.688 635.29 274.247C638.736 270.806 643.128 268.463 647.908 267.514C652.689 266.565 657.644 267.052 662.147 268.914C666.651 270.776 670.5 273.93 673.208 277.976C675.916 282.022 677.361 286.779 677.361 291.645C677.361 294.876 676.723 298.075 675.485 301.06C674.246 304.045 672.431 306.757 670.143 309.042C667.854 311.327 665.137 313.139 662.147 314.376C659.157 315.612 655.953 316.248 652.716 316.248ZM652.716 276.82C649.779 276.82 646.908 277.689 644.466 279.318C642.024 280.947 640.121 283.263 638.997 285.972C637.873 288.68 637.579 291.661 638.152 294.537C638.725 297.413 640.139 300.054 642.216 302.127C644.293 304.201 646.939 305.613 649.819 306.185C652.7 306.757 655.685 306.463 658.399 305.341C661.112 304.219 663.431 302.319 665.063 299.881C666.695 297.443 667.566 294.577 667.566 291.645C667.566 289.698 667.182 287.77 666.435 285.972C665.689 284.173 664.595 282.539 663.216 281.162C661.837 279.785 660.2 278.693 658.399 277.948C656.597 277.203 654.666 276.82 652.716 276.82Z" fill="#4738B3"/>
<path d="M652.716 376.017C647.842 376.017 643.077 374.574 639.024 371.87C634.971 369.167 631.813 365.324 629.947 360.829C628.082 356.333 627.594 351.386 628.545 346.613C629.496 341.841 631.843 337.457 635.29 334.016C638.736 330.575 643.128 328.232 647.908 327.282C652.689 326.333 657.644 326.82 662.147 328.682C666.651 330.545 670.5 333.698 673.208 337.744C675.916 341.79 677.361 346.547 677.361 351.413C677.361 357.938 674.764 364.196 670.143 368.81C665.521 373.425 659.252 376.017 652.716 376.017ZM652.716 336.627C649.777 336.628 646.905 337.498 644.462 339.129C642.019 340.759 640.116 343.077 638.993 345.788C637.87 348.499 637.579 351.482 638.155 354.359C638.731 357.236 640.149 359.877 642.23 361.949C644.31 364.02 646.96 365.429 649.843 365.997C652.726 366.564 655.713 366.265 658.426 365.137C661.139 364.009 663.455 362.103 665.082 359.66C666.709 357.217 667.573 354.347 667.566 351.413C667.555 347.488 665.986 343.727 663.202 340.956C660.419 338.184 656.648 336.627 652.716 336.627Z" fill="#6C60C2"/>
<path d="M713.29 274.786H685.393V281.162H713.29V274.786Z" fill="#4738B3"/>
<path d="M716.503 287.264H685.393V288.75H716.503V287.264Z" fill="#4738B3"/>
<path d="M716.503 294.109H685.393V295.595H716.503V294.109Z" fill="#4738B3"/>
<path d="M716.503 300.954H685.393V302.441H716.503V300.954Z" fill="#4738B3"/>
<path d="M704.317 307.799H685.393V309.286H704.317V307.799Z" fill="#4738B3"/>
<path d="M713.29 332.52H685.393V338.896H713.29V332.52Z" fill="#4738B3"/>
<path d="M716.503 344.998H685.393V346.485H716.503V344.998Z" fill="#4738B3"/>
<path d="M716.503 351.843H685.393V353.33H716.503V351.843Z" fill="#4738B3"/>
<path d="M716.503 358.689H685.393V360.175H716.503V358.689Z" fill="#4738B3"/>
<path d="M704.317 365.534H685.393V367.02H704.317V365.534Z" fill="#4738B3"/>
<path d="M666.312 392.993H628.581V399.369H666.312V392.993Z" fill="#4738B3"/>
<path d="M698.284 399.447H672.463V392.875H698.284V399.447ZM673.952 397.96H696.795V394.323H673.952V397.96Z" fill="#4738B3"/>
<path d="M716.503 405.432H628.581V406.918H716.503V405.432Z" fill="#4738B3"/>
<path d="M716.503 412.277H628.581V413.763H716.503V412.277Z" fill="#4738B3"/>
<path d="M716.503 419.122H628.581V420.608H716.503V419.122Z" fill="#4738B3"/>
<path d="M682.102 425.967H628.581V427.454H682.102V425.967Z" fill="#4738B3"/>
<path d="M539.523 314.41C531.06 314.402 522.786 316.9 515.746 321.587C508.705 326.274 503.215 332.94 499.97 340.742C496.724 348.544 495.869 357.131 497.512 365.419C499.156 373.706 503.224 381.321 509.202 387.3C515.18 393.279 522.8 397.354 531.098 399.01C539.396 400.665 548 399.827 555.821 396.602C563.642 393.376 570.329 387.907 575.037 380.887C579.744 373.867 582.261 365.611 582.269 357.163C582.269 345.838 577.768 334.975 569.754 326.96C561.739 318.944 550.867 314.431 539.523 314.41ZM539.523 381.336C534.713 381.344 530.009 379.926 526.008 377.263C522.006 374.599 518.886 370.81 517.044 366.375C515.202 361.939 514.72 357.058 515.659 352.349C516.598 347.64 518.917 343.315 522.32 339.923C525.724 336.53 530.06 334.223 534.778 333.293C539.496 332.363 544.385 332.852 548.825 334.698C553.265 336.545 557.056 339.665 559.717 343.664C562.379 347.664 563.791 352.362 563.776 357.163C563.765 363.578 561.205 369.726 556.658 374.259C552.111 378.791 545.948 381.336 539.523 381.336Z" fill="#4738B3"/>
<path d="M588.068 344.646L582.7 331.621L587.206 322.077L574.55 309.442L564.99 314.136L551.982 308.738L548.456 298.803H530.55L527.024 308.738L514.016 314.136L504.455 309.56L491.8 321.959L496.345 331.503C494.151 336.706 493.093 339.326 490.938 344.529L480.947 348.049V365.925L490.938 369.445C493.093 374.648 494.151 377.268 496.345 382.471L491.8 392.015L504.455 404.649L514.016 400.19L527.024 405.588L530.55 415.523H548.456L551.982 405.588L564.99 400.19L574.55 404.767L587.206 392.132L582.7 382.588L588.068 369.563L598.059 366.042V348.167L588.068 344.646ZM539.522 399.799C531.055 399.807 522.776 397.306 515.733 392.614C508.69 387.922 503.2 381.249 499.958 373.44C496.716 365.631 495.868 357.037 497.521 348.747C499.174 340.457 503.253 332.842 509.243 326.868C515.233 320.893 522.864 316.827 531.17 315.185C539.476 313.542 548.083 314.397 555.902 317.641C563.721 320.885 570.4 326.372 575.094 333.407C579.787 340.443 582.284 348.71 582.269 357.163C582.238 368.468 577.723 379.301 569.712 387.291C561.701 395.281 550.846 399.778 539.522 399.799Z" fill="#6C60C2"/>
<path style="mix-blend-mode:multiply" d="M594.141 75.5319L576.94 90.7869C579.451 87.2951 580.894 83.1508 581.093 78.8567C581.236 77.5342 581.02 76.1977 580.469 74.9868C579.917 73.7759 579.051 72.7349 577.959 71.9724C576.737 71.4027 575.386 71.1677 574.043 71.2914C572.7 71.4151 571.415 71.8932 570.318 72.6765C567.288 74.6484 564.766 77.3048 562.955 80.4307C561.145 83.5566 560.097 87.0642 559.896 90.6696C559.758 91.9917 559.976 93.3267 560.527 94.5369C561.078 95.7471 561.942 96.7886 563.031 97.5539C563.908 98.0288 564.893 98.2712 565.891 98.258C567.111 98.2307 568.311 97.951 569.417 97.4366L551.394 113.435L551.864 113.943L594.611 76.0404L594.141 75.5319ZM563.383 96.9281C562.397 96.2307 561.615 95.2827 561.119 94.1823C560.623 93.0819 560.431 91.8691 560.562 90.6696C560.763 87.1856 561.782 83.7977 563.539 80.7804C565.295 77.7631 567.738 75.2012 570.671 73.3023C572.004 72.4733 573.529 72.0018 575.099 71.9333C575.975 71.9178 576.84 72.1337 577.606 72.5592C578.59 73.2683 579.369 74.224 579.864 75.3297C580.359 76.4354 580.553 77.652 580.427 78.8567C580.227 82.3407 579.207 85.7286 577.451 88.7459C575.695 91.7632 573.251 94.3251 570.318 96.224C569.322 96.9332 568.155 97.365 566.936 97.475C565.717 97.585 564.491 97.3692 563.383 96.8498V96.9281Z" fill="url(#paint1_linear_536_7222)"/>
<path d="M592.613 77.8398L644.684 30.2754L596.648 67.1221L592.613 77.8398Z" fill="#9188D1"/>
<path d="M615.024 77.8398L575.882 52.9232L644.684 30.2754L615.024 77.8398Z" fill="#6C60C2"/>
<path d="M590.889 62.4674L592.613 77.8398L599.822 68.1391L644.684 30.2754L590.889 62.4674Z" fill="#4738B3"/>
<path style="mix-blend-mode:multiply" opacity="0.5" d="M394.443 533.998C459.272 480.532 494.231 415.925 472.525 389.693C450.818 363.462 380.668 385.54 315.838 439.005C251.009 492.471 216.05 557.078 237.756 583.31C259.462 609.541 329.613 587.464 394.443 533.998Z" fill="url(#paint2_radial_536_7222)"/>
<path style="mix-blend-mode:multiply" d="M298.128 526.063L249.309 569.325C256.451 559.42 260.537 547.645 261.063 535.451C261.063 526.181 257.85 519.257 252.09 515.893C246.331 512.53 238.573 513.273 230.463 517.967C221.88 523.533 214.727 531.035 209.582 539.868C204.437 548.7 201.443 558.617 200.842 568.817C200.842 578.048 204.015 584.971 209.814 588.374C212.275 589.762 215.059 590.477 217.885 590.447C221.356 590.374 224.773 589.574 227.916 588.101L176.98 633.396L178.273 634.844L299.46 527.393L298.128 526.063ZM210.833 586.771C205.661 583.837 202.997 577.5 202.997 569.012C203.554 559.128 206.438 549.514 211.415 540.951C216.391 532.387 223.32 525.116 231.638 519.727C235.416 517.348 239.752 515.999 244.215 515.815C246.624 515.788 248.998 516.381 251.111 517.536C256.244 520.509 258.947 526.807 258.947 535.334C258.388 545.213 255.507 554.823 250.538 563.385C245.569 571.947 238.652 579.221 230.345 584.619C222.979 589.039 215.848 589.783 210.833 586.771Z" fill="url(#paint3_linear_536_7222)"/>
<path d="M293.701 532.83L441.413 397.96L305.22 502.438L293.701 532.83Z" fill="#6C60C2"/>
<path d="M357.37 532.83L246.292 462.188L441.413 397.96L357.37 532.83Z" fill="#4738B3"/>
<path d="M288.842 489.217L293.701 532.83L314.153 505.332L441.413 397.96L288.842 489.217Z" fill="#352A86"/>
<g opacity="0.5">
<path d="M268.586 85.5455C267.528 83.0421 267.018 81.6339 266 79.3261L268.155 74.7887L262.121 68.765L257.576 70.9163L251.385 68.3347L249.661 63.7973H241.159L239.357 68.3347L233.127 70.9163L228.582 68.765L222.548 74.7887L224.703 79.3261L222.156 85.5455L217.376 87.2275V95.7155L222.156 97.3975L224.703 103.617L222.548 108.154L228.582 114.178L233.127 112.027L239.357 114.647L241.041 119.38H249.544L251.268 114.647L257.458 112.066L262.003 114.217C265.02 111.205 265.059 111.205 268.037 108.193L265.882 103.656C266.901 101.192 267.41 99.7444 268.468 97.4366L273.209 95.7546V87.2666L268.586 85.5455ZM245.43 102.913C243.097 102.952 240.805 102.296 238.847 101.031C236.888 99.7653 235.351 97.9464 234.431 95.8059C233.512 93.6654 233.251 91.3001 233.682 89.011C234.113 86.722 235.217 84.6129 236.853 82.9521C238.488 81.2914 240.582 80.1542 242.867 79.6853C245.153 79.2165 247.526 79.4371 249.685 80.3193C251.845 81.2014 253.692 82.7051 254.993 84.6388C256.293 86.5726 256.988 88.849 256.988 91.1781C256.988 94.2567 255.777 97.2122 253.615 99.4074C251.453 101.602 248.513 102.861 245.43 102.913Z" fill="#4738B3"/>
<path d="M245.43 112.77C241.206 112.77 237.078 111.52 233.566 109.177C230.055 106.835 227.318 103.505 225.702 99.6099C224.085 95.7146 223.663 91.4283 224.486 87.293C225.31 83.1577 227.344 79.3592 230.331 76.3779C233.317 73.3965 237.122 71.3662 241.264 70.5436C245.406 69.721 249.7 70.1432 253.601 71.7567C257.503 73.3702 260.838 76.1026 263.185 79.6083C265.531 83.114 266.783 87.2356 266.783 91.4519C266.773 97.1026 264.52 102.519 260.518 106.515C256.515 110.51 251.09 112.759 245.43 112.77ZM245.43 71.1119C241.389 71.1041 237.437 72.2938 234.074 74.5301C230.711 76.7664 228.089 79.9488 226.539 83.6742C224.989 87.3996 224.581 91.5004 225.368 95.4572C226.154 99.414 228.099 103.049 230.956 105.901C233.813 108.754 237.454 110.695 241.418 111.48C245.381 112.266 249.489 111.859 253.221 110.311C256.952 108.764 260.14 106.146 262.38 102.789C264.62 99.4313 265.812 95.4858 265.804 91.4519C265.783 86.0637 263.63 80.9021 259.814 77.0921C255.997 73.2821 250.827 71.1325 245.43 71.1119Z" fill="#6C60C2"/>
</g>
</g>
<defs>
<radialGradient id="paint0_radial_536_7222" cx="0" cy="0" r="1" gradientUnits="userSpaceOnUse" gradientTransform="translate(101.165 327.787) scale(82.7111 82.5727)">
<stop/>
<stop offset="0.08" stop-color="#242424"/>
<stop offset="0.22" stop-color="#5D5D5D"/>
<stop offset="0.36" stop-color="#8F8F8F"/>
<stop offset="0.5" stop-color="#B7B7B7"/>
<stop offset="0.64" stop-color="#D6D6D6"/>
<stop offset="0.77" stop-color="#EDEDED"/>
<stop offset="0.89" stop-color="#FAFAFA"/>
<stop offset="1" stop-color="white"/>
</radialGradient>
<linearGradient id="paint1_linear_536_7222" x1="598.059" y1="62.1153" x2="546.842" y2="105.188" gradientUnits="userSpaceOnUse">
<stop stop-color="#29227F"/>
<stop offset="0.01" stop-color="#2B2480"/>
<stop offset="0.5" stop-color="#9C98C4"/>
<stop offset="0.84" stop-color="#E3E2EE"/>
<stop offset="1" stop-color="white"/>
</linearGradient>
<radialGradient id="paint2_radial_536_7222" cx="0" cy="0" r="1" gradientUnits="userSpaceOnUse" gradientTransform="translate(353.883 484.859) rotate(-39.5129) scale(152.154 62.3634)">
<stop offset="0.14"/>
<stop offset="0.23" stop-color="#303030"/>
<stop offset="0.34" stop-color="#666666"/>
<stop offset="0.46" stop-color="#959595"/>
<stop offset="0.57" stop-color="#BBBBBB"/>
<stop offset="0.68" stop-color="#D9D9D9"/>
<stop offset="0.79" stop-color="#EEEEEE"/>
<stop offset="0.9" stop-color="#FBFBFB"/>
<stop offset="1" stop-color="white"/>
</radialGradient>
<linearGradient id="paint3_linear_536_7222" x1="309.177" y1="488.2" x2="163.9" y2="610.362" gradientUnits="userSpaceOnUse">
<stop stop-color="#29227F"/>
<stop offset="0.01" stop-color="#2B2480"/>
<stop offset="0.5" stop-color="#9C98C4"/>
<stop offset="0.84" stop-color="#E3E2EE"/>
<stop offset="1" stop-color="white"/>
</linearGradient>
<clipPath id="clip0_536_7222">
<rect width="731" height="635" fill="white"/>
</clipPath>
</defs>
</svg>
