<svg width="30" height="32" viewBox="0 0 30 32" fill="none" xmlns="http://www.w3.org/2000/svg">
<path d="M19.8336 18.8913C20.3274 18.8913 20.7276 19.304 20.7276 19.8123C20.7276 20.3213 20.3274 20.7334 19.8336 20.7334H6.5874C6.0936 20.7334 5.6934 20.3213 5.6934 19.8123C5.6934 19.304 6.0936 18.8913 6.5874 18.8913H19.8336ZM26.4204 3.82734H27.5568C28.2294 3.82734 28.8408 4.11334 29.283 4.57357L29.34 4.63851C29.7486 5.09437 30 5.70385 30 6.37015V29.4572C30 30.1547 29.7246 30.7904 29.2812 31.2519C28.8408 31.714 28.2294 32 27.5568 32H6.0222C5.3532 32 4.743 31.714 4.2996 31.2538L4.296 31.2506C3.8532 30.7867 3.5796 30.1528 3.5796 29.4572V28.1727H2.4432C1.7742 28.1727 1.164 27.8867 0.7206 27.4271L0.717 27.4233C0.2742 26.96 0 26.3255 0 25.6305V2.54281C0 1.84654 0.2748 1.21146 0.717 0.74998L0.7206 0.746234C1.1658 0.28538 1.7748 0 2.4432 0H23.9778C24.6504 0 25.2618 0.286004 25.704 0.746234L25.7604 0.811178C26.169 1.26704 26.4204 1.87651 26.4204 2.54281V3.82734ZM4.2504 26.303C4.32464 26.2828 4.40107 26.2728 4.4778 26.273C4.5564 26.273 4.632 26.283 4.7046 26.303H23.9778C24.1542 26.303 24.3162 26.2268 24.4332 26.1044C24.552 25.9852 24.624 25.8166 24.624 25.6305V2.54281C24.624 2.37234 24.564 2.21747 24.4662 2.10007L24.4332 2.06822C24.3162 1.94583 24.1542 1.86964 23.9778 1.86964H2.4432C2.2644 1.86964 2.1024 1.94458 1.9872 2.06448L1.9836 2.06822C1.92393 2.13062 1.87667 2.20466 1.84455 2.2861C1.81242 2.36754 1.79606 2.45478 1.7964 2.54281V25.6305C1.7964 25.8166 1.8684 25.9852 1.9836 26.1044L1.9872 26.1082C2.04719 26.1702 2.11833 26.2194 2.19657 26.2528C2.27482 26.2863 2.35862 26.3033 2.4432 26.303H4.2504ZM5.376 28.1727V29.4572C5.376 29.6439 5.448 29.8125 5.5632 29.9318L5.5668 29.9355C5.6814 30.0554 5.8434 30.1304 6.0222 30.1304H27.5568C27.7332 30.1304 27.8952 30.0542 28.0128 29.9318C28.1316 29.8125 28.2036 29.6439 28.2036 29.4572V6.37015C28.2036 6.19967 28.1436 6.04481 28.0452 5.92741L28.0128 5.89556C27.8952 5.77316 27.7332 5.69698 27.5568 5.69698H26.4204V25.6305C26.4204 26.3274 26.145 26.9631 25.7022 27.4252C25.2618 27.8867 24.6504 28.1727 23.9778 28.1727H5.376ZM19.8336 7.43923C20.3274 7.43923 20.7276 7.852 20.7276 8.36032C20.7276 8.86925 20.3274 9.28202 19.8336 9.28202H6.5874C6.0936 9.28202 5.6934 8.86925 5.6934 8.36032C5.6934 7.852 6.0936 7.43923 6.5874 7.43923H19.8336ZM19.8336 13.1656C20.3274 13.1656 20.7276 13.5777 20.7276 14.0866C20.7276 14.5956 20.3274 15.0077 19.8336 15.0077H6.5874C6.0936 15.0077 5.6934 14.5956 5.6934 14.0866C5.6934 13.5777 6.0936 13.1656 6.5874 13.1656H19.8336Z" fill="#727272"/>
</svg>
