<svg width="160" height="33" viewBox="0 0 160 33" fill="none" xmlns="http://www.w3.org/2000/svg">
<path fill-rule="evenodd" clip-rule="evenodd" d="M15.6874 2.4958H3.50117C2.94889 2.4958 2.50117 2.94352 2.50117 3.4958V15.6587C2.67203 18.4557 5.43221 25.4674 15.7244 29.5685C15.9537 29.6599 16.2169 29.6603 16.4465 29.5697C26.8507 25.4666 29.6362 18.4503 29.8086 15.6584V3.4958C29.8086 2.94352 29.3609 2.4958 28.8086 2.4958H16.4752H15.6874ZM15.6874 0.195801H16.4752H30.9586H31.1086C31.6609 0.195801 32.1086 0.643516 32.1086 1.1958V1.3458V15.692V15.7239L32.1069 15.7558C31.8895 19.6658 28.2193 27.8489 16.0908 32.1586C16.0898 32.159 16.089 32.1598 16.0886 32.1608C16.088 32.1627 16.0859 32.1636 16.084 32.163C16.0837 32.1628 16.0833 32.1627 16.0829 32.1626C16.0819 32.1622 16.0808 32.1622 16.0797 32.1626C16.0788 32.1629 16.078 32.1632 16.0771 32.1635C16.0742 32.1645 16.071 32.163 16.07 32.1601C16.0694 32.1585 16.0681 32.1573 16.0666 32.1567C4.04903 27.8441 0.417856 19.6588 0.202911 15.7552L0.201172 15.7236V15.692V1.3458V1.1958C0.201172 0.643516 0.648887 0.195801 1.20117 0.195801H1.35117H15.6874Z" fill="#222448"/>
<path d="M9.87256 15.5289L13.6967 19.0844L22.4375 10.9575" stroke="#222448" stroke-width="2.3" stroke-linecap="round"/>
<path d="M58.2266 19.8672C58.2266 19.4688 58.1641 19.1172 58.0391 18.8125C57.9219 18.5 57.7109 18.2188 57.4062 17.9688C57.1094 17.7188 56.6953 17.4805 56.1641 17.2539C55.6406 17.0273 54.9766 16.7969 54.1719 16.5625C53.3281 16.3125 52.5664 16.0352 51.8867 15.7305C51.207 15.418 50.625 15.0625 50.1406 14.6641C49.6562 14.2656 49.2852 13.8086 49.0273 13.293C48.7695 12.7773 48.6406 12.1875 48.6406 11.5234C48.6406 10.8594 48.7773 10.2461 49.0508 9.68359C49.3242 9.12109 49.7148 8.63281 50.2227 8.21875C50.7383 7.79688 51.3516 7.46875 52.0625 7.23438C52.7734 7 53.5664 6.88281 54.4414 6.88281C55.7227 6.88281 56.8086 7.12891 57.6992 7.62109C58.5977 8.10547 59.2812 8.74219 59.75 9.53125C60.2188 10.3125 60.4531 11.1484 60.4531 12.0391H58.2031C58.2031 11.3984 58.0664 10.832 57.793 10.3398C57.5195 9.83984 57.1055 9.44922 56.5508 9.16797C55.9961 8.87891 55.293 8.73438 54.4414 8.73438C53.6367 8.73438 52.9727 8.85547 52.4492 9.09766C51.9258 9.33984 51.5352 9.66797 51.2773 10.082C51.0273 10.4961 50.9023 10.9688 50.9023 11.5C50.9023 11.8594 50.9766 12.1875 51.125 12.4844C51.2812 12.7734 51.5195 13.043 51.8398 13.293C52.168 13.543 52.582 13.7734 53.082 13.9844C53.5898 14.1953 54.1953 14.3984 54.8984 14.5938C55.8672 14.8672 56.7031 15.1719 57.4062 15.5078C58.1094 15.8438 58.6875 16.2227 59.1406 16.6445C59.6016 17.0586 59.9414 17.5312 60.1602 18.0625C60.3867 18.5859 60.5 19.1797 60.5 19.8438C60.5 20.5391 60.3594 21.168 60.0781 21.7305C59.7969 22.293 59.3945 22.7734 58.8711 23.1719C58.3477 23.5703 57.7188 23.8789 56.9844 24.0977C56.2578 24.3086 55.4453 24.4141 54.5469 24.4141C53.7578 24.4141 52.9805 24.3047 52.2148 24.0859C51.457 23.8672 50.7656 23.5391 50.1406 23.1016C49.5234 22.6641 49.0273 22.125 48.6523 21.4844C48.2852 20.8359 48.1016 20.0859 48.1016 19.2344H50.3516C50.3516 19.8203 50.4648 20.3242 50.6914 20.7461C50.918 21.1602 51.2266 21.5039 51.6172 21.7773C52.0156 22.0508 52.4648 22.2539 52.9648 22.3867C53.4727 22.5117 54 22.5742 54.5469 22.5742C55.3359 22.5742 56.0039 22.4648 56.5508 22.2461C57.0977 22.0273 57.5117 21.7148 57.793 21.3086C58.082 20.9023 58.2266 20.4219 58.2266 19.8672ZM79.0227 22.3398V24.1797H69.9875V22.3398H79.0227ZM70.4445 7.11719V24.1797H68.1828V7.11719H70.4445ZM77.8273 14.4531V16.293H69.9875V14.4531H77.8273ZM78.9055 7.11719V8.96875H69.9875V7.11719H78.9055ZM96.9242 18.7539H99.1742C99.057 19.832 98.7484 20.7969 98.2484 21.6484C97.7484 22.5 97.0414 23.1758 96.1273 23.6758C95.2133 24.168 94.0727 24.4141 92.7055 24.4141C91.7055 24.4141 90.7953 24.2266 89.975 23.8516C89.1625 23.4766 88.4633 22.9453 87.8773 22.2578C87.2914 21.5625 86.8383 20.7305 86.518 19.7617C86.2055 18.7852 86.0492 17.6992 86.0492 16.5039V14.8047C86.0492 13.6094 86.2055 12.5273 86.518 11.5586C86.8383 10.582 87.2953 9.74609 87.8891 9.05078C88.4906 8.35547 89.2133 7.82031 90.057 7.44531C90.9008 7.07031 91.85 6.88281 92.9047 6.88281C94.1937 6.88281 95.2836 7.125 96.1742 7.60938C97.0648 8.09375 97.7562 8.76562 98.2484 9.625C98.7484 10.4766 99.057 11.4648 99.1742 12.5898H96.9242C96.8148 11.793 96.6117 11.1094 96.3148 10.5391C96.018 9.96094 95.5961 9.51562 95.0492 9.20312C94.5023 8.89062 93.7875 8.73438 92.9047 8.73438C92.1469 8.73438 91.4789 8.87891 90.9008 9.16797C90.3305 9.45703 89.85 9.86719 89.4594 10.3984C89.0766 10.9297 88.7875 11.5664 88.5922 12.3086C88.3969 13.0508 88.2992 13.875 88.2992 14.7812V16.5039C88.2992 17.3398 88.3852 18.125 88.557 18.8594C88.7367 19.5938 89.0062 20.2383 89.3656 20.793C89.725 21.3477 90.182 21.7852 90.7367 22.1055C91.2914 22.418 91.9477 22.5742 92.7055 22.5742C93.6664 22.5742 94.432 22.4219 95.0023 22.1172C95.5727 21.8125 96.0023 21.375 96.2914 20.8047C96.5883 20.2344 96.7992 19.5508 96.9242 18.7539ZM116.818 7.11719H119.068V18.6602C119.068 19.9414 118.783 21.0078 118.213 21.8594C117.642 22.7109 116.884 23.3516 115.939 23.7812C115.002 24.2031 113.982 24.4141 112.88 24.4141C111.724 24.4141 110.677 24.2031 109.74 23.7812C108.81 23.3516 108.072 22.7109 107.525 21.8594C106.986 21.0078 106.716 19.9414 106.716 18.6602V7.11719H108.955V18.6602C108.955 19.5508 109.119 20.2852 109.447 20.8633C109.775 21.4414 110.232 21.8711 110.818 22.1523C111.412 22.4336 112.099 22.5742 112.88 22.5742C113.67 22.5742 114.357 22.4336 114.943 22.1523C115.537 21.8711 115.998 21.4414 116.326 20.8633C116.654 20.2852 116.818 19.5508 116.818 18.6602V7.11719ZM127.419 7.11719H133.067C134.348 7.11719 135.43 7.3125 136.313 7.70312C137.204 8.09375 137.88 8.67188 138.341 9.4375C138.809 10.1953 139.044 11.1289 139.044 12.2383C139.044 13.0195 138.884 13.7344 138.563 14.3828C138.251 15.0234 137.798 15.5703 137.204 16.0234C136.618 16.4688 135.915 16.8008 135.095 17.0195L134.462 17.2656H129.153L129.13 15.4258H133.137C133.95 15.4258 134.626 15.2852 135.165 15.0039C135.704 14.7148 136.11 14.3281 136.384 13.8438C136.657 13.3594 136.794 12.8242 136.794 12.2383C136.794 11.582 136.665 11.0078 136.407 10.5156C136.149 10.0234 135.743 9.64453 135.188 9.37891C134.641 9.10547 133.934 8.96875 133.067 8.96875H129.68V24.1797H127.419V7.11719ZM137.391 24.1797L133.243 16.4453L135.598 16.4336L139.805 24.0391V24.1797H137.391ZM157.848 22.3398V24.1797H148.812V22.3398H157.848ZM149.27 7.11719V24.1797H147.008V7.11719H149.27ZM156.652 14.4531V16.293H148.812V14.4531H156.652ZM157.73 7.11719V8.96875H148.812V7.11719H157.73Z" fill="#222448"/>
</svg>
