<svg width="34" height="24" viewBox="0 0 34 24" fill="none" xmlns="http://www.w3.org/2000/svg">
<path d="M1.5 20.5V3C1.5 1.89543 2.39543 1 3.5 1H12.1167C12.634 1 13.1313 1.20049 13.504 1.55936L15.4576 3.44064C15.8303 3.79951 16.3275 4 16.8449 4H26.5C27.6046 4 28.5 4.89543 28.5 6V8" stroke="#727272" stroke-width="1.4"/>
<path d="M27.3419 23H19.8571H3.72502C2.37438 23 1.41207 21.6889 1.81703 20.4003L5.27418 9.40035C5.5361 8.56697 6.3086 8 7.18217 8H31.1832C32.5602 8 33.5253 9.35926 33.0713 10.6594L29.2301 21.6594C28.9497 22.4622 28.1923 23 27.3419 23Z" stroke="#727272" stroke-width="1.5"/>
</svg>
