<svg width="222" height="47" viewBox="0 0 222 47" fill="none" xmlns="http://www.w3.org/2000/svg">
<mask id="path-1-outside-1_51_1020" maskUnits="userSpaceOnUse" x="0.169922" y="-0.0332031" width="24" height="28" fill="black">
<rect fill="white" x="0.169922" y="-0.0332031" width="24" height="28"/>
<path d="M17.8875 23.9911L15.7442 27.1935C15.7442 27.1935 5.46294 28.0845 1.89915 17.976C-1.66463 7.8676 8.68929 0.249965 14.468 1.02046L14.3761 4.63206C13.2239 4.59061 12.0868 4.90402 11.1186 5.52989C10.1503 6.15576 9.39766 7.0639 8.96236 8.13148C7.40573 11.9012 9.31543 16.093 13.6516 16.5748C17.9877 17.0566 22.0305 17.0722 23.6193 18.4367L20.5217 21.1656C18.9789 20.5016 17.3023 20.2075 15.6256 20.3068C12.2549 20.3068 6.98279 19.825 4.98299 12.5779C4.98299 12.5779 2.65586 23.4449 17.8884 23.9911"/>
</mask>
<path d="M17.8875 23.9911L15.7442 27.1935C15.7442 27.1935 5.46294 28.0845 1.89915 17.976C-1.66463 7.8676 8.68929 0.249965 14.468 1.02046L14.3761 4.63206C13.2239 4.59061 12.0868 4.90402 11.1186 5.52989C10.1503 6.15576 9.39766 7.0639 8.96236 8.13148C7.40573 11.9012 9.31543 16.093 13.6516 16.5748C17.9877 17.0566 22.0305 17.0722 23.6193 18.4367L20.5217 21.1656C18.9789 20.5016 17.3023 20.2075 15.6256 20.3068C12.2549 20.3068 6.98279 19.825 4.98299 12.5779C4.98299 12.5779 2.65586 23.4449 17.8884 23.9911" fill="#0CA750"/>
<path d="M15.7442 27.1935L15.7615 27.3928L15.8571 27.3845L15.9104 27.3047L15.7442 27.1935ZM14.468 1.02046L14.668 1.02555L14.6725 0.845961L14.4945 0.822218L14.468 1.02046ZM14.3761 4.63206L14.3689 4.83193L14.5709 4.8392L14.576 4.63715L14.3761 4.63206ZM8.96236 8.13148L9.14722 8.20782L9.14756 8.207L8.96236 8.13148ZM23.6193 18.4367L23.7515 18.5867L23.924 18.4347L23.7496 18.2849L23.6193 18.4367ZM20.5217 21.1656L20.4426 21.3493L20.5589 21.3994L20.6539 21.3157L20.5217 21.1656ZM15.6256 20.3068V20.5072L15.6374 20.5065L15.6256 20.3068ZM4.98299 12.5779L5.17578 12.5247L4.78742 12.5361L4.98299 12.5779ZM17.7212 23.8798L15.578 27.0823L15.9104 27.3047L18.0537 24.1023L17.7212 23.8798ZM15.7442 27.1935C15.727 26.9943 15.727 26.9942 15.727 26.9942C15.727 26.9943 15.727 26.9943 15.7269 26.9943C15.7267 26.9943 15.7264 26.9943 15.7259 26.9943C15.7249 26.9944 15.7233 26.9946 15.7211 26.9947C15.7167 26.9951 15.7098 26.9956 15.7006 26.9963C15.6821 26.9975 15.6542 26.9994 15.6172 27.0013C15.5434 27.0053 15.4337 27.0098 15.2923 27.0121C15.0094 27.0166 14.5998 27.012 14.0966 26.9753C13.0898 26.9018 11.711 26.6998 10.2234 26.1864C7.25296 25.1612 3.84543 22.895 2.08777 17.9095L1.71053 18.0425C3.51666 23.1655 7.03166 25.508 10.0929 26.5645C11.621 27.0919 13.0353 27.2989 14.0675 27.3742C14.5839 27.4119 15.0054 27.4167 15.2987 27.412C15.4454 27.4097 15.56 27.4049 15.6385 27.4008C15.6778 27.3987 15.708 27.3967 15.7287 27.3953C15.739 27.3945 15.7469 27.3939 15.7524 27.3935C15.7552 27.3933 15.7573 27.3931 15.7588 27.393C15.7596 27.3929 15.7602 27.3929 15.7606 27.3928C15.7608 27.3928 15.7611 27.3928 15.7612 27.3928C15.7613 27.3928 15.7615 27.3928 15.7442 27.1935ZM2.08777 17.9095C0.335796 12.9402 2.00035 8.58459 4.82639 5.55507C6.24046 4.03919 7.94279 2.85907 9.64594 2.10614C11.3514 1.35221 13.0441 1.03238 14.4416 1.21871L14.4945 0.822218C13.0026 0.623301 11.234 0.966734 9.48421 1.7403C7.7321 2.51486 5.98517 3.72646 4.53389 5.28222C1.62924 8.39601 -0.101278 12.9035 1.71053 18.0425L2.08777 17.9095ZM14.2681 1.01537L14.1761 4.62697L14.576 4.63715L14.668 1.02555L14.2681 1.01537ZM14.3833 4.43219C13.1902 4.38927 12.0126 4.71381 11.01 5.36193L11.2271 5.69786C12.161 5.09423 13.2577 4.79196 14.3689 4.83193L14.3833 4.43219ZM11.01 5.36193C10.0073 6.01004 9.22793 6.95045 8.77717 8.05597L9.14756 8.207C9.56738 7.17735 10.2933 6.30149 11.2271 5.69786L11.01 5.36193ZM8.7775 8.05515C7.97832 9.99057 8.06566 12.0431 8.9199 13.6787C9.77602 15.3179 11.3962 16.5254 13.6295 16.7736L13.6736 16.376C11.5708 16.1424 10.0681 15.0131 9.27446 13.4935C8.47897 11.9704 8.38978 10.0421 9.14722 8.20782L8.7775 8.05515ZM13.6295 16.7736C15.8174 17.0167 17.8853 17.1379 19.6391 17.373C20.5103 17.4897 21.2883 17.633 21.9439 17.8295C22.601 18.0264 23.1217 18.273 23.489 18.5884L23.7496 18.2849C23.3225 17.9181 22.742 17.6511 22.0588 17.4463C21.374 17.2411 20.5724 17.0944 19.6922 16.9765C17.9434 16.7421 15.8218 16.6147 13.6736 16.376L13.6295 16.7736ZM23.4871 18.2866L20.3895 21.0155L20.6539 21.3157L23.7515 18.5867L23.4871 18.2866ZM20.6007 20.9819C19.0293 20.3056 17.3216 20.006 15.6138 20.1072L15.6374 20.5065C17.283 20.409 18.9285 20.6976 20.4426 21.3493L20.6007 20.9819ZM15.6256 20.1068C13.9463 20.1068 11.8265 19.9855 9.88191 18.9823C7.94737 17.9842 6.16247 16.1004 5.17578 12.5247L4.79019 12.6311C5.8033 16.3026 7.65436 18.2832 9.69851 19.3378C11.7326 20.3872 13.9343 20.5068 15.6256 20.5068V20.1068ZM4.98299 12.5779C4.78742 12.5361 4.78738 12.5362 4.78734 12.5364C4.78731 12.5366 4.78726 12.5368 4.7872 12.5371C4.7871 12.5376 4.78696 12.5382 4.78678 12.5391C4.78643 12.5407 4.78595 12.5431 4.78535 12.546C4.78415 12.552 4.78245 12.5605 4.78034 12.5715C4.77612 12.5936 4.77024 12.6257 4.76331 12.6671C4.74945 12.7501 4.73139 12.8705 4.71402 13.0234C4.6793 13.3289 4.6473 13.7645 4.65742 14.2883C4.67763 15.335 4.86617 16.7403 5.54282 18.1655C6.90522 21.035 10.2114 23.9159 17.8812 24.1909L17.8955 23.7912C10.3329 23.52 7.18632 20.6944 5.90416 17.9939C5.25852 16.6341 5.07681 15.2885 5.05734 14.2806C5.04762 13.7771 5.07842 13.3594 5.11146 13.0685C5.12798 12.9232 5.14504 12.8096 5.15783 12.7331C5.16423 12.6948 5.16955 12.6658 5.17321 12.6467C5.17504 12.6372 5.17645 12.6301 5.17736 12.6256C5.17782 12.6233 5.17815 12.6217 5.17835 12.6208C5.17846 12.6203 5.17852 12.62 5.17856 12.6198C5.17857 12.6197 5.17857 12.6197 5.17858 12.6197C5.17857 12.6197 5.17855 12.6198 4.98299 12.5779Z" fill="#0CA750" mask="url(#path-1-outside-1_51_1020)"/>
<path d="M22.7292 29.4713L22.7707 29.4074L22.6868 29.353L22.7707 29.4074L22.7708 29.4073L22.7712 29.4067L22.7728 29.4042L22.7796 29.3938L22.807 29.3528C22.8314 29.3165 22.8679 29.2629 22.9162 29.1938C23.0128 29.0556 23.1565 28.8556 23.3442 28.6089C23.7197 28.1156 24.2711 27.4362 24.9745 26.6929C26.3823 25.2051 28.394 23.4662 30.8168 22.4463C33.2539 21.4203 34.8682 20.9253 36.0949 20.6863C37.2481 20.4617 38.0614 20.4625 38.9031 20.4634C38.9557 20.4634 39.0084 20.4635 39.0613 20.4635C39.1004 20.4635 39.142 20.4636 39.1859 20.4637C40.1486 20.4658 42.226 20.4705 44.3267 19.5479C46.4453 18.6175 48.5804 16.7474 49.6323 13.0076C49.8062 14.2694 49.7114 15.5556 49.3521 16.7813C48.9491 18.1559 48.2249 19.4149 47.2393 20.4543C45.5401 22.2009 44.1719 22.9353 42.7559 23.2671C42.0454 23.4336 41.3196 23.4995 40.5279 23.5385C40.2163 23.5539 39.8927 23.5651 39.5559 23.5768C39.0416 23.5947 38.4963 23.6137 37.9149 23.65C35.9722 23.7715 33.4779 24.4748 31.1127 25.7935C28.747 27.1126 26.5042 29.051 25.0726 31.6474L25.0344 31.7167L25.0929 31.7698L27.6932 34.1291L27.7802 34.208L27.8442 34.1095L27.7603 34.055L27.8442 34.1095L27.8443 34.1094L27.8448 34.1086L27.8469 34.1054L27.8556 34.0922C27.8635 34.0805 27.8753 34.0629 27.891 34.0399C27.9225 33.9938 27.9698 33.9259 28.0325 33.8392C28.1578 33.6657 28.3448 33.4168 28.5904 33.1164C29.0818 32.5156 29.8075 31.7093 30.7442 30.8882C32.6188 29.2453 35.3317 27.5492 38.6987 27.3122C38.9412 27.2952 39.1774 27.2788 39.4076 27.2629C42.3936 27.0563 44.3723 26.9194 46.079 26.1728C47.9236 25.3659 49.4414 23.8524 51.5859 20.8156C53.7501 17.7509 54.2312 13.0298 52.5452 8.94407C50.8562 4.85117 46.9938 1.39697 40.4789 0.867126L40.3708 0.858334V0.966797V4.39266V4.48095L40.4584 4.49189L40.4584 4.49189L40.4585 4.4919L40.4589 4.49196L40.4611 4.49224L40.4704 4.4935C40.4787 4.49465 40.4913 4.49645 40.5079 4.49898C40.541 4.50404 40.5901 4.51203 40.6531 4.52363C40.7792 4.54684 40.961 4.5845 41.1822 4.64211C41.625 4.75739 42.2243 4.95222 42.8514 5.27017C44.1059 5.90618 45.4627 7.0298 45.9112 8.98924C46.3636 10.9659 46.064 12.8138 45.1319 14.1588C44.2016 15.5012 42.6331 16.3546 40.5197 16.331L40.5189 16.331C36.2293 16.3188 32.0074 17.4001 28.2517 19.4726C24.496 21.5452 21.3305 24.5407 19.0539 28.1763L18.9854 28.2857L19.1085 28.3247L22.6566 29.4483L22.7292 29.4713Z" fill="#0CA750" stroke="#0CA750" stroke-width="0.2"/>
<mask id="path-4-outside-2_51_1020" maskUnits="userSpaceOnUse" x="26.9531" y="28.8652" width="15" height="18" fill="black">
<rect fill="white" x="26.9531" y="28.8652" width="15" height="18"/>
<path d="M41.1941 33.574V29.8658C41.1941 29.8658 30.6159 29.5771 29.781 41.5199C29.781 41.7669 29.6829 42.0038 29.5082 42.1785C29.3335 42.3531 29.0966 42.4513 28.8496 42.4513H27.9697L27.9531 46.6228C29.1083 46.6401 30.2382 46.2841 31.1749 45.6077C32.1115 44.9313 32.8048 43.9707 33.1517 42.8687C34.4674 38.9197 32.9908 34.6507 41.1932 33.5749"/>
</mask>
<path d="M41.1941 33.574V29.8658C41.1941 29.8658 30.6159 29.5771 29.781 41.5199C29.781 41.7669 29.6829 42.0038 29.5082 42.1785C29.3335 42.3531 29.0966 42.4513 28.8496 42.4513H27.9697L27.9531 46.6228C29.1083 46.6401 30.2382 46.2841 31.1749 45.6077C32.1115 44.9313 32.8048 43.9707 33.1517 42.8687C34.4674 38.9197 32.9908 34.6507 41.1932 33.5749" fill="#0CA750"/>
<path d="M41.1941 29.8658H41.3941V29.6712L41.1996 29.6659L41.1941 29.8658ZM29.781 41.5199L29.581 41.5059V41.5199H29.781ZM27.9697 42.4513V42.2513H27.7705L27.7697 42.4505L27.9697 42.4513ZM27.9531 46.6228L27.7531 46.622L27.7523 46.8198L27.9501 46.8228L27.9531 46.6228ZM33.1517 42.8687L32.9619 42.8055L32.9609 42.8086L33.1517 42.8687ZM41.3941 33.574V29.8658H40.9941V33.574H41.3941ZM41.1941 29.8658C41.1996 29.6659 41.1994 29.6659 41.1992 29.6659C41.1991 29.6659 41.1989 29.6659 41.1986 29.6659C41.1982 29.6659 41.1975 29.6659 41.1968 29.6659C41.1952 29.6658 41.193 29.6658 41.1901 29.6657C41.1844 29.6656 41.1762 29.6655 41.1656 29.6654C41.1443 29.6652 41.1132 29.6651 41.0731 29.6655C40.9927 29.6664 40.8758 29.6692 40.7274 29.677C40.4305 29.6928 40.007 29.7288 39.4969 29.8098C38.4773 29.9717 37.1071 30.314 35.7088 31.0367C32.9004 32.488 30.004 35.4621 29.5815 41.5059L29.9805 41.5338C30.3929 35.6349 33.203 32.782 35.8925 31.392C37.243 30.694 38.5697 30.3621 39.5596 30.2049C40.0542 30.1263 40.4636 30.0916 40.7485 30.0765C40.891 30.0689 41.0022 30.0663 41.0772 30.0655C41.1147 30.0651 41.1431 30.0652 41.1619 30.0654C41.1713 30.0655 41.1783 30.0656 41.1828 30.0657C41.185 30.0657 41.1866 30.0657 41.1876 30.0657C41.1881 30.0658 41.1884 30.0658 41.1886 30.0658C41.1887 30.0658 41.1887 30.0658 41.1888 30.0658C41.1887 30.0658 41.1887 30.0658 41.1941 29.8658ZM29.581 41.5199C29.581 41.7138 29.5039 41.8999 29.3668 42.037L29.6496 42.3199C29.8618 42.1077 29.981 41.8199 29.981 41.5199H29.581ZM29.3668 42.037C29.2296 42.1742 29.0436 42.2513 28.8496 42.2513V42.6513C29.1497 42.6513 29.4374 42.5321 29.6496 42.3199L29.3668 42.037ZM28.8496 42.2513H27.9697V42.6513H28.8496V42.2513ZM27.7697 42.4505L27.7531 46.622L28.1531 46.6236L28.1697 42.4521L27.7697 42.4505ZM27.9501 46.8228C29.1484 46.8407 30.3204 46.4714 31.2919 45.7698L31.0578 45.4456C30.1561 46.0967 29.0682 46.4395 27.9561 46.4228L27.9501 46.8228ZM31.2919 45.7698C32.2635 45.0683 32.9826 44.0718 33.3425 42.9288L32.9609 42.8086C32.627 43.8696 31.9595 44.7944 31.0578 45.4456L31.2919 45.7698ZM33.3414 42.9319C33.6761 41.9274 33.8332 40.9021 34.0066 39.9372C34.1814 38.9648 34.3728 38.0519 34.77 37.2315C35.1641 36.4173 35.7632 35.6898 36.7633 35.0977C37.7677 34.5029 39.1845 34.0401 41.2192 33.7732L41.1672 33.3766C39.1007 33.6476 37.6262 34.1218 36.5595 34.7535C35.4883 35.3877 34.8365 36.176 34.4099 37.0572C33.9864 37.9321 33.7877 38.8941 33.6129 39.8664C33.4369 40.8462 33.2851 41.8354 32.962 42.8055L33.3414 42.9319Z" fill="#0CA750" mask="url(#path-4-outside-2_51_1020)"/>
<mask id="path-6-outside-3_51_1020" maskUnits="userSpaceOnUse" x="13.9004" y="28.8652" width="15" height="18" fill="black">
<rect fill="white" x="13.9004" y="28.8652" width="15" height="18"/>
<path d="M14.9004 33.574V29.8658C14.9004 29.8658 25.4787 29.5771 26.3135 41.5199C26.3135 41.7669 26.4116 42.0038 26.5863 42.1785C26.761 42.3531 26.9979 42.4513 27.2449 42.4513H28.0476V46.6247C26.9049 46.6353 25.7895 46.2749 24.8691 45.5977C23.9486 44.9204 23.2727 43.9628 22.9428 42.8687C21.6271 38.9197 23.1037 34.6507 14.9004 33.5749"/>
</mask>
<path d="M14.9004 33.574V29.8658C14.9004 29.8658 25.4787 29.5771 26.3135 41.5199C26.3135 41.7669 26.4116 42.0038 26.5863 42.1785C26.761 42.3531 26.9979 42.4513 27.2449 42.4513H28.0476V46.6247C26.9049 46.6353 25.7895 46.2749 24.8691 45.5977C23.9486 44.9204 23.2727 43.9628 22.9428 42.8687C21.6271 38.9197 23.1037 34.6507 14.9004 33.5749" fill="#0CA750"/>
<path d="M14.9004 29.8658L14.8949 29.6659L14.7004 29.6712V29.8658H14.9004ZM26.3135 41.5199H26.514L26.513 41.5059L26.3135 41.5199ZM28.0476 42.4513H28.2476V42.2513H28.0476V42.4513ZM28.0476 46.6247L28.0495 46.8246L28.2476 46.8228V46.6247H28.0476ZM22.9428 42.8687L23.1344 42.8109L23.1326 42.8055L22.9428 42.8687ZM15.1004 33.574V29.8658H14.7004V33.574H15.1004ZM14.9004 29.8658C14.9058 30.0658 14.9058 30.0658 14.9057 30.0658C14.9058 30.0658 14.9058 30.0658 14.9059 30.0658C14.9061 30.0658 14.9064 30.0658 14.9069 30.0657C14.9079 30.0657 14.9095 30.0657 14.9117 30.0657C14.9162 30.0656 14.9232 30.0655 14.9326 30.0654C14.9514 30.0652 14.9798 30.0651 15.0173 30.0655C15.0924 30.0663 15.2035 30.0689 15.346 30.0765C15.6309 30.0916 16.0403 30.1263 16.5349 30.2049C17.5248 30.3621 18.8515 30.694 20.2021 31.392C22.8915 32.782 25.7016 35.6349 26.114 41.5338L26.513 41.5059C26.0905 35.4621 23.1941 32.488 20.3857 31.0367C18.9874 30.314 17.6172 29.9717 16.5977 29.8098C16.0875 29.7288 15.664 29.6928 15.3672 29.677C15.2187 29.6692 15.1018 29.6664 15.0215 29.6655C14.9813 29.6651 14.9502 29.6652 14.9289 29.6654C14.9183 29.6655 14.9101 29.6656 14.9044 29.6657C14.9016 29.6658 14.8993 29.6658 14.8978 29.6659C14.897 29.6659 14.8963 29.6659 14.8959 29.6659C14.8956 29.6659 14.8954 29.6659 14.8953 29.6659C14.8951 29.6659 14.8949 29.6659 14.9004 29.8658ZM26.1135 41.5199C26.1135 41.8199 26.2327 42.1077 26.4449 42.3199L26.7277 42.037C26.5906 41.8999 26.5135 41.7139 26.5135 41.5199H26.1135ZM26.4449 42.3199C26.6571 42.5321 26.9448 42.6513 27.2449 42.6513V42.2513C27.0509 42.2513 26.8649 42.1742 26.7277 42.037L26.4449 42.3199ZM27.2449 42.6513H28.0476V42.2513H27.2449V42.6513ZM27.8476 42.4513V46.6247H28.2476V42.4513H27.8476ZM28.0457 46.4247C26.9463 46.4349 25.8732 46.0882 24.9876 45.4366L24.7505 45.7588C25.7059 46.4617 26.8634 46.8357 28.0495 46.8246L28.0457 46.4247ZM24.9876 45.4366C24.102 44.785 23.4517 43.8637 23.1343 42.811L22.7513 42.9264C23.0937 44.062 23.7952 45.0559 24.7505 45.7588L24.9876 45.4366ZM23.1326 42.8055C22.8094 41.8354 22.6577 40.8462 22.4816 39.8664C22.3068 38.8941 22.108 37.9321 21.6845 37.0572C21.2579 36.176 20.6059 35.3877 19.5347 34.7535C18.4678 34.1218 16.9931 33.6476 14.9264 33.3766L14.8744 33.7732C16.9093 34.0401 18.3263 34.5029 19.3309 35.0977C20.331 35.6898 20.9303 36.4173 21.3244 37.2315C21.7216 38.0519 21.9131 38.9648 22.0879 39.9372C22.2613 40.9021 22.4184 41.9274 22.7531 42.9319L23.1326 42.8055Z" fill="#0CA750" mask="url(#path-6-outside-3_51_1020)"/>
<path d="M82.0215 31.6426C82.0215 31.0566 81.9303 30.5358 81.748 30.0801C81.5788 29.6243 81.2728 29.2077 80.8301 28.8301C80.3874 28.4525 79.7624 28.0879 78.9551 27.7363C78.1608 27.3717 77.1452 27.0007 75.9082 26.623C74.554 26.2064 73.304 25.7441 72.1582 25.2363C71.0254 24.7155 70.0358 24.1165 69.1895 23.4395C68.3431 22.7493 67.6855 21.9616 67.2168 21.0762C66.748 20.1777 66.5137 19.1426 66.5137 17.9707C66.5137 16.8118 66.7546 15.7572 67.2363 14.8066C67.7311 13.8561 68.4277 13.0358 69.3262 12.3457C70.2376 11.6426 71.3118 11.1022 72.5488 10.7246C73.7858 10.334 75.153 10.1387 76.6504 10.1387C78.7598 10.1387 80.5762 10.5293 82.0996 11.3105C83.6361 12.0918 84.8145 13.14 85.6348 14.4551C86.4681 15.7702 86.8848 17.222 86.8848 18.8105H82.0215C82.0215 17.873 81.8197 17.0462 81.416 16.3301C81.0254 15.6009 80.4264 15.028 79.6191 14.6113C78.8249 14.1947 77.8158 13.9863 76.5918 13.9863C75.4329 13.9863 74.4694 14.1621 73.7012 14.5137C72.9329 14.8652 72.36 15.3405 71.9824 15.9395C71.6048 16.5384 71.416 17.2155 71.416 17.9707C71.416 18.5046 71.5397 18.9928 71.7871 19.4355C72.0345 19.8652 72.4121 20.2689 72.9199 20.6465C73.4277 21.0111 74.0658 21.3561 74.834 21.6816C75.6022 22.0072 76.5072 22.3197 77.5488 22.6191C79.1243 23.0879 80.498 23.6087 81.6699 24.1816C82.8418 24.7415 83.8184 25.3796 84.5996 26.0957C85.3809 26.8118 85.9668 27.6257 86.3574 28.5371C86.748 29.4355 86.9434 30.4577 86.9434 31.6035C86.9434 32.8014 86.7025 33.8822 86.2207 34.8457C85.7389 35.7962 85.0488 36.61 84.1504 37.2871C83.265 37.9512 82.1973 38.4655 80.9473 38.8301C79.7103 39.1816 78.3301 39.3574 76.8066 39.3574C75.4395 39.3574 74.0918 39.1751 72.7637 38.8105C71.4486 38.446 70.2507 37.8926 69.1699 37.1504C68.0892 36.3952 67.2298 35.4577 66.5918 34.3379C65.9538 33.2051 65.6348 31.8835 65.6348 30.373H70.5371C70.5371 31.2975 70.6934 32.0853 71.0059 32.7363C71.3314 33.3874 71.7806 33.9212 72.3535 34.3379C72.9264 34.7415 73.5905 35.041 74.3457 35.2363C75.1139 35.4316 75.9342 35.5293 76.8066 35.5293C77.9525 35.5293 78.9095 35.3665 79.6777 35.041C80.459 34.7155 81.0449 34.2598 81.4355 33.6738C81.8262 33.0879 82.0215 32.4108 82.0215 31.6426ZM100.498 17.834V21.2715H88.584V17.834H100.498ZM92.0215 12.6582H96.7285V33.127C96.7285 33.778 96.8197 34.2793 97.002 34.6309C97.1973 34.9694 97.4642 35.1973 97.8027 35.3145C98.1413 35.4316 98.5384 35.4902 98.9941 35.4902C99.3197 35.4902 99.6322 35.4707 99.9316 35.4316C100.231 35.3926 100.472 35.3535 100.654 35.3145L100.674 38.9082C100.283 39.0254 99.8275 39.1296 99.3066 39.2207C98.7988 39.3118 98.2129 39.3574 97.5488 39.3574C96.4681 39.3574 95.5111 39.1686 94.6777 38.791C93.8444 38.4004 93.1934 37.7689 92.7246 36.8965C92.2559 36.0241 92.0215 34.8652 92.0215 33.4199V12.6582ZM102.764 28.6348V28.1855C102.764 26.6621 102.985 25.2493 103.428 23.9473C103.87 22.6322 104.508 21.4928 105.342 20.5293C106.188 19.5527 107.217 18.7975 108.428 18.2637C109.652 17.7168 111.032 17.4434 112.568 17.4434C114.118 17.4434 115.498 17.7168 116.709 18.2637C117.933 18.7975 118.968 19.5527 119.814 20.5293C120.661 21.4928 121.305 22.6322 121.748 23.9473C122.191 25.2493 122.412 26.6621 122.412 28.1855V28.6348C122.412 30.1582 122.191 31.571 121.748 32.873C121.305 34.1751 120.661 35.3145 119.814 36.291C118.968 37.2546 117.939 38.0098 116.729 38.5566C115.518 39.0905 114.144 39.3574 112.607 39.3574C111.058 39.3574 109.671 39.0905 108.447 38.5566C107.236 38.0098 106.208 37.2546 105.361 36.291C104.515 35.3145 103.87 34.1751 103.428 32.873C102.985 31.571 102.764 30.1582 102.764 28.6348ZM107.471 28.1855V28.6348C107.471 29.5853 107.568 30.4837 107.764 31.3301C107.959 32.1764 108.265 32.9186 108.682 33.5566C109.098 34.1947 109.632 34.696 110.283 35.0605C110.934 35.4251 111.709 35.6074 112.607 35.6074C113.48 35.6074 114.235 35.4251 114.873 35.0605C115.524 34.696 116.058 34.1947 116.475 33.5566C116.891 32.9186 117.197 32.1764 117.393 31.3301C117.601 30.4837 117.705 29.5853 117.705 28.6348V28.1855C117.705 27.248 117.601 26.3626 117.393 25.5293C117.197 24.6829 116.885 23.9342 116.455 23.2832C116.038 22.6322 115.505 22.1243 114.854 21.7598C114.215 21.3822 113.454 21.1934 112.568 21.1934C111.683 21.1934 110.915 21.3822 110.264 21.7598C109.626 22.1243 109.098 22.6322 108.682 23.2832C108.265 23.9342 107.959 24.6829 107.764 25.5293C107.568 26.3626 107.471 27.248 107.471 28.1855ZM129.521 17.834L133.545 24.8457L137.646 17.834H142.822L136.416 28.2051L143.076 38.9668H137.9L133.604 31.6621L129.307 38.9668H124.111L130.752 28.2051L124.365 17.834H129.521ZM151.416 10.5293V38.9668H146.514V10.5293H151.416ZM168.506 10.5293L156.982 24.2207L150.42 31.1738L149.561 26.3105L154.248 20.5293L162.529 10.5293H168.506ZM163.232 38.9668L153.877 25.4902L157.256 22.1504L169.053 38.9668H163.232ZM183.232 34.7285V24.6504C183.232 23.8952 183.096 23.2441 182.822 22.6973C182.549 22.1504 182.132 21.7272 181.572 21.4277C181.025 21.1283 180.335 20.9785 179.502 20.9785C178.734 20.9785 178.07 21.1087 177.51 21.3691C176.95 21.6296 176.514 21.9811 176.201 22.4238C175.889 22.8665 175.732 23.3678 175.732 23.9277H171.045C171.045 23.0944 171.247 22.2871 171.65 21.5059C172.054 20.7246 172.64 20.028 173.408 19.416C174.176 18.804 175.094 18.3223 176.162 17.9707C177.23 17.6191 178.428 17.4434 179.756 17.4434C181.344 17.4434 182.751 17.7103 183.975 18.2441C185.212 18.778 186.182 19.5853 186.885 20.666C187.601 21.7337 187.959 23.0749 187.959 24.6895V34.084C187.959 35.0475 188.024 35.9134 188.154 36.6816C188.298 37.4368 188.499 38.0944 188.76 38.6543V38.9668H183.936C183.714 38.459 183.538 37.8145 183.408 37.0332C183.291 36.2389 183.232 35.4707 183.232 34.7285ZM183.916 26.1152L183.955 29.0254H180.576C179.704 29.0254 178.936 29.11 178.271 29.2793C177.607 29.4355 177.054 29.6699 176.611 29.9824C176.169 30.2949 175.837 30.6725 175.615 31.1152C175.394 31.5579 175.283 32.0592 175.283 32.6191C175.283 33.179 175.413 33.6934 175.674 34.1621C175.934 34.6178 176.312 34.9759 176.807 35.2363C177.314 35.4967 177.926 35.627 178.643 35.627C179.606 35.627 180.446 35.4316 181.162 35.041C181.891 34.6374 182.464 34.1491 182.881 33.5762C183.298 32.9902 183.519 32.4368 183.545 31.916L185.068 34.0059C184.912 34.5397 184.645 35.1126 184.268 35.7246C183.89 36.3366 183.395 36.9225 182.783 37.4824C182.184 38.0293 181.462 38.4785 180.615 38.8301C179.782 39.1816 178.818 39.3574 177.725 39.3574C176.344 39.3574 175.114 39.084 174.033 38.5371C172.952 37.9772 172.106 37.2285 171.494 36.291C170.882 35.3405 170.576 34.2663 170.576 33.0684C170.576 31.9486 170.785 30.959 171.201 30.0996C171.631 29.2272 172.256 28.498 173.076 27.9121C173.91 27.3262 174.925 26.8835 176.123 26.584C177.321 26.2715 178.688 26.1152 180.225 26.1152H183.916ZM197.607 21.8574V38.9668H192.9V17.834H197.393L197.607 21.8574ZM204.072 17.6973L204.033 22.0723C203.747 22.0202 203.434 21.9811 203.096 21.9551C202.77 21.929 202.445 21.916 202.119 21.916C201.312 21.916 200.602 22.0332 199.99 22.2676C199.378 22.4889 198.864 22.8145 198.447 23.2441C198.044 23.6608 197.731 24.1686 197.51 24.7676C197.288 25.3665 197.158 26.0371 197.119 26.7793L196.045 26.8574C196.045 25.5293 196.175 24.2988 196.436 23.166C196.696 22.0332 197.087 21.0371 197.607 20.1777C198.141 19.3184 198.805 18.6478 199.6 18.166C200.407 17.6842 201.338 17.4434 202.393 17.4434C202.679 17.4434 202.985 17.4694 203.311 17.5215C203.649 17.5736 203.903 17.6322 204.072 17.6973ZM217.686 17.834V21.2715H205.771V17.834H217.686ZM209.209 12.6582H213.916V33.127C213.916 33.778 214.007 34.2793 214.189 34.6309C214.385 34.9694 214.652 35.1973 214.99 35.3145C215.329 35.4316 215.726 35.4902 216.182 35.4902C216.507 35.4902 216.82 35.4707 217.119 35.4316C217.419 35.3926 217.66 35.3535 217.842 35.3145L217.861 38.9082C217.471 39.0254 217.015 39.1296 216.494 39.2207C215.986 39.3118 215.4 39.3574 214.736 39.3574C213.656 39.3574 212.699 39.1686 211.865 38.791C211.032 38.4004 210.381 37.7689 209.912 36.8965C209.443 36.0241 209.209 34.8652 209.209 33.4199V12.6582Z" fill="#424242"/>
</svg>
